<?xml version="1.0" standalone="no"?>
<!DOCTYPE svg PUBLIC "-//W3C//DTD SVG 20010904//EN"
 "http://www.w3.org/TR/2001/REC-SVG-20010904/DTD/svg10.dtd">
<svg version="1.0" xmlns="http://www.w3.org/2000/svg"
 width="600.000000pt" height="600.000000pt" viewBox="0 0 600.000000 600.000000"
 preserveAspectRatio="xMidYMid meet">

<g transform="translate(0.000000,600.000000) scale(0.100000,-0.100000)"
fill="#000000" stroke="none">
<path d="M635 5688 c-49 -17 -92 -55 -114 -101 l-21 -43 0 -2545 1 -2544 23
-45 c15 -31 38 -55 71 -75 l48 -30 2331 -3 c1659 -2 2342 0 2369 8 49 14 106
65 128 115 18 38 19 145 19 2576 l0 2537 -28 53 c-22 43 -38 59 -81 81 l-53
28 -2332 -1 c-1598 0 -2340 -4 -2361 -11z m4265 -400 c18 -13 43 -36 54 -51
l21 -28 3 -1871 2 -1871 -21 -43 c-12 -26 -36 -53 -57 -66 l-37 -23 -1854 -3
c-1236 -1 -1866 1 -1891 8 -48 13 -107 76 -116 125 -17 92 -136 -34 1864 1967
1016 1016 1860 1854 1877 1863 46 22 116 19 155 -7z m-1446 -4122 c34 -14 76
-59 76 -82 0 -25 -56 -17 -74 11 -12 18 -25 25 -47 25 -44 0 -66 -15 -79 -56
-32 -95 46 -179 118 -128 34 23 29 54 -8 54 -23 0 -30 4 -30 20 0 18 7 20 60
20 l60 0 0 -80 c0 -73 -2 -80 -20 -80 -12 0 -20 7 -20 16 0 15 -2 15 -25 0
-59 -39 -163 -7 -191 59 -35 85 -6 181 66 217 42 22 70 22 114 4z m421 0 c34
-14 55 -41 55 -70 0 -25 -57 -21 -65 4 -7 24 -51 37 -74 23 -9 -6 -17 -19 -19
-31 -3 -21 -2 -22 74 -41 65 -17 94 -45 94 -91 0 -30 -6 -43 -31 -64 -25 -22
-41 -26 -90 -26 -50 0 -63 4 -88 28 -16 15 -32 37 -36 50 -6 20 -3 22 27 22
25 0 36 -6 43 -22 20 -46 129 -30 112 16 -3 8 -23 19 -44 26 -74 22 -111 42
-122 66 -16 36 -14 49 14 83 35 41 91 51 150 27z m-961 -17 c32 -25 37 -89 8
-116 -17 -17 -17 -19 -1 -43 9 -14 19 -47 22 -73 l5 -48 -32 3 c-29 3 -31 6
-37 51 -6 56 -18 67 -76 67 l-43 0 0 -60 0 -60 -30 0 -30 0 0 150 0 150 94 0
c79 0 97 -3 120 -21z m306 -4 c0 -23 -3 -24 -77 -27 l-78 -3 0 -30 0 -30 73
-3 c69 -3 72 -4 72 -27 0 -24 -2 -25 -75 -25 l-75 0 0 -35 0 -35 80 0 80 0 0
-30 0 -30 -110 0 -110 0 0 150 0 150 110 0 110 0 0 -25z m430 -125 l0 -150
-30 0 -30 0 0 150 0 150 30 0 30 0 0 -150z m550 126 c0 -22 -5 -25 -42 -28
l-43 -3 -3 -122 -3 -123 -29 0 -30 0 0 125 0 125 -45 0 c-41 0 -45 2 -45 25
l0 25 120 0 120 0 0 -24z m260 -1 c0 -23 -3 -24 -77 -27 l-78 -3 0 -30 0 -30
73 -3 c69 -3 72 -4 72 -27 0 -24 -2 -25 -75 -25 l-75 0 0 -35 0 -34 83 -3 c80
-3 82 -4 82 -28 l0 -25 -112 -3 -113 -3 0 151 0 150 110 0 110 0 0 -25z m261
12 c40 -31 49 -82 20 -118 -16 -21 -17 -26 -5 -45 8 -12 17 -45 21 -73 l6 -51
-30 0 c-29 0 -31 3 -38 48 -9 62 -19 72 -71 72 l-43 0 -3 -57 c-3 -57 -3 -58
-35 -61 l-33 -3 0 150 0 151 98 0 c60 -1 103 -5 113 -13z"/>
<path d="M2744 2740 c-36 -14 -72 -67 -80 -116 -18 -124 97 -223 198 -170 16
9 30 11 33 5 4 -5 15 -9 26 -9 17 0 19 7 19 80 l0 81 -62 -3 c-57 -3 -63 -5
-66 -25 -3 -20 1 -23 32 -23 40 0 43 -6 20 -38 -23 -33 -86 -31 -113 4 -33 42
-29 108 9 146 25 24 36 29 58 24 15 -4 35 -16 44 -27 12 -14 27 -19 47 -17
l30 3 -16 33 c-9 18 -29 40 -44 48 -30 15 -102 18 -135 4z"/>
<path d="M3067 2743 c-9 -14 -107 -276 -107 -285 0 -4 14 -8 31 -8 24 0 32 6
40 30 11 29 13 30 69 30 57 0 59 -1 65 -30 6 -26 11 -30 41 -30 21 0 34 5 33
13 0 6 -24 73 -52 147 -51 131 -53 135 -84 138 -17 2 -33 -1 -36 -5z m51 -122
c17 -55 15 -61 -18 -61 -16 0 -30 5 -30 11 0 21 23 89 30 89 4 0 12 -17 18
-39z"/>
<path d="M3299 2735 c-48 -26 -57 -100 -18 -132 8 -6 32 -16 54 -22 78 -24 95
-33 95 -52 0 -47 -94 -48 -115 -1 -7 15 -18 22 -37 22 -35 0 -39 -8 -23 -47
17 -39 61 -63 115 -63 77 0 130 42 130 101 0 35 -50 74 -113 88 -32 7 -61 19
-64 27 -15 40 66 62 89 24 16 -26 84 -29 74 -4 -3 9 -6 20 -6 25 0 5 -15 18
-32 29 -39 24 -111 26 -149 5z"/>
<path d="M4460 2660 c0 -5 14 -10 30 -10 l30 0 0 -80 c0 -47 4 -80 10 -80 6 0
10 33 10 80 l0 80 30 0 c17 0 30 5 30 10 0 6 -30 10 -70 10 -40 0 -70 -4 -70
-10z"/>
<path d="M4610 2580 c0 -53 4 -90 10 -90 6 0 10 30 11 68 l0 67 27 -67 c15
-38 32 -68 38 -68 7 0 23 30 37 68 l26 67 0 -67 c1 -38 5 -68 11 -68 6 0 10
37 10 91 0 111 -12 113 -54 9 -24 -59 -31 -70 -38 -54 -38 93 -59 134 -67 134
-7 0 -11 -34 -11 -90z"/>
<path d="M3773 2634 c-52 -19 -118 -89 -132 -140 -6 -22 -11 -63 -11 -91 l0
-53 -65 0 -65 0 0 -75 0 -75 65 0 65 0 0 -325 0 -325 110 0 110 0 0 325 0 325
75 0 75 0 0 75 0 75 -75 0 -75 0 0 44 c0 69 22 88 98 87 l62 -1 0 85 0 85 -97
-1 c-59 0 -115 -6 -140 -15z"/>
<path d="M2120 2357 c-118 -27 -192 -92 -212 -188 -21 -104 12 -176 102 -221
30 -15 117 -43 194 -63 149 -37 182 -52 196 -91 27 -70 -68 -135 -176 -118
-63 9 -106 41 -124 92 l-15 43 -100 -3 -100 -3 3 -30 c9 -102 88 -190 200
-225 93 -29 251 -29 343 -1 127 40 194 129 194 258 0 121 -76 182 -285 229
-182 41 -229 69 -214 130 13 50 122 71 202 38 36 -14 51 -32 66 -76 5 -16 19
-18 106 -18 l100 0 0 28 c0 42 -47 129 -85 158 -59 45 -131 66 -240 70 -59 2
-123 -2 -155 -9z"/>
<path d="M2960 2357 c-141 -32 -221 -106 -243 -225 l-7 -33 111 3 111 3 12 34
c14 45 53 72 109 78 104 12 167 -24 167 -96 0 -67 -31 -82 -237 -111 -164 -22
-236 -60 -274 -145 -46 -101 -8 -243 81 -297 107 -65 331 -47 417 34 l22 20 6
-36 7 -36 114 0 114 0 -12 28 c-8 18 -13 129 -16 327 -3 271 -6 303 -23 337
-22 42 -71 79 -139 103 -60 22 -248 29 -320 12z m260 -492 c0 -108 -36 -163
-119 -185 -125 -33 -225 45 -180 143 17 37 62 57 161 73 51 9 99 19 107 24 28
16 31 11 31 -55z"/>
<path d="M4320 2355 c-76 -22 -129 -55 -188 -120 -78 -85 -97 -143 -97 -295 0
-120 1 -128 32 -192 77 -163 235 -242 437 -217 129 16 220 79 277 191 16 32
29 60 29 63 0 3 -42 5 -94 5 l-94 0 -39 -39 c-38 -38 -92 -61 -143 -61 -42 0
-104 21 -129 43 -29 27 -60 93 -61 129 l0 28 288 2 287 3 -2 68 c-6 172 -90
312 -226 372 -76 34 -195 43 -277 20z m201 -178 c34 -22 79 -96 79 -129 0 -17
-14 -18 -175 -18 -169 0 -175 1 -175 20 0 32 37 96 67 118 39 27 51 30 114 31
42 1 64 -5 90 -22z"/>
<path d="M2760 1080 l0 -40 55 0 c50 0 55 2 61 25 9 38 -11 55 -67 55 l-49 0
0 -40z"/>
<path d="M4580 1079 l0 -40 53 3 c49 3 52 5 55 32 4 35 -10 46 -65 46 l-43 0
0 -41z"/>
</g>
</svg>
