<?xml version="1.0" encoding="UTF-8"?> <svg xmlns="http://www.w3.org/2000/svg" viewBox="0 0 156 156"><g fill="#fff"><path d="m122.4 22.2h-13.7v-6.1c0-2-2.2-2.9-4.1-2.9h-10.7c-2.5-7.2-8.8-10.8-16-10.8-7.1-.3-13.6 4.1-16 10.8h-10.5c-2 0-4 .9-4 2.9v6.1h-13.7c-8.1.1-14.7 6.5-15.1 14.6v103.1c0 7.9 7.2 13.7 15.1 13.7h88.5c7.9 0 15.1-5.8 15.1-13.7v-103.1c-.2-8.1-6.8-14.5-14.9-14.6zm-67.7-1.8h9.9c1.7-.2 3.1-1.5 3.4-3.2 1.1-4.6 5.1-8 9.9-8.1 4.7.1 8.7 3.5 9.7 8.1.3 1.8 1.8 3.1 3.6 3.2h10.3v14.4h-46.8zm75.6 119.5c0 4-4 6.5-7.9 6.5h-88.6c-4 0-7.9-2.5-7.9-6.5v-103.1c.4-4.1 3.8-7.3 7.9-7.4h13.7v9.2c.2 2 1.9 3.5 4 3.4h53.1c2.1.1 3.9-1.4 4.1-3.4v-9.2h13.7c4.1.1 7.5 3.3 7.9 7.4z"></path><path d="m64.1 82.9c-1.3-1.4-3.6-1.5-5-.2l-11.5 11-4.9-5c-1.3-1.4-3.6-1.5-5-.2-1.4 1.5-1.4 3.8 0 5.2l7.4 7.6c.6.7 1.6 1.1 2.5 1.1s1.9-.4 2.5-1.1l14-13.3c1.4-1.3 1.5-3.4.2-4.8 0-.2-.1-.3-.2-.3z"></path><path d="m115.9 90.6h-41.5c-2 0-3.6 1.6-3.6 3.6s1.6 3.6 3.6 3.6h41.4c2 0 3.6-1.6 3.6-3.6s-1.5-3.6-3.5-3.6z"></path><path d="m64.1 54.1c-1.3-1.4-3.6-1.5-5-.2l-11.5 11-4.9-5c-1.3-1.4-3.6-1.5-5-.2-1.4 1.5-1.4 3.8 0 5.2l7.4 7.6c.6.7 1.6 1.1 2.5 1.1s1.9-.4 2.5-1.1l14-13.3c1.4-1.3 1.5-3.4.2-4.8 0-.2-.1-.3-.2-.3z"></path><path d="m115.9 61.8h-41.5c-2 0-3.6 1.6-3.6 3.6s1.6 3.6 3.6 3.6h41.4c2 0 3.6-1.6 3.6-3.6s-1.5-3.6-3.5-3.6z"></path><path d="m64.1 111.7c-1.3-1.4-3.6-1.5-5-.2l-11.5 11-4.9-5c-1.3-1.4-3.6-1.5-5-.2-1.4 1.5-1.4 3.8 0 5.2l7.4 7.6c.6.7 1.6 1.1 2.5 1.1s1.9-.4 2.5-1.1l14-13.3c1.4-1.3 1.5-3.4.2-4.8 0-.2-.1-.3-.2-.3z"></path><path d="m115.9 119.4h-41.5c-2 0-3.6 1.6-3.6 3.6s1.6 3.6 3.6 3.6h41.4c2 0 3.6-1.6 3.6-3.6s-1.5-3.6-3.5-3.6z"></path></g></svg> 