<?xml version="1.0" standalone="no"?>
<!DOCTYPE svg PUBLIC "-//W3C//DTD SVG 20010904//EN"
 "http://www.w3.org/TR/2001/REC-SVG-20010904/DTD/svg10.dtd">
<svg version="1.0" xmlns="http://www.w3.org/2000/svg"
 width="2588.000000pt" height="1478.000000pt" viewBox="0 0 2588.000000 1478.000000"
 preserveAspectRatio="xMidYMid meet">

<g transform="translate(0.000000,1478.000000) scale(0.100000,-0.100000)"
fill="#000000" stroke="none">
<path d="M9343 14724 c-121 -19 -251 -62 -349 -116 -118 -64 -254 -204 -315
-323 -85 -165 -116 -293 -125 -520 -4 -92 -2 -192 5 -260 12 -107 55 -357 67
-388 4 -12 -7 -16 -63 -22 -106 -10 -382 -44 -406 -51 -16 -4 -51 -61 -136
-222 -63 -119 -115 -218 -115 -219 -1 -1 -100 -14 -221 -28 -524 -62 -1035
-155 -1456 -266 -31 -8 -38 -15 -43 -42 -17 -94 -61 -597 -82 -937 -6 -100 -8
-107 -50 -180 -74 -128 -119 -248 -158 -422 -2 -10 -3 -18 -1 -18 1 0 30 37
63 83 34 45 77 100 96 122 l34 40 -5 -200 c-5 -174 -8 -208 -28 -260 -50 -136
-68 -241 -68 -400 0 -166 19 -278 68 -396 30 -71 45 -192 26 -203 -15 -9 -14
-53 3 -156 8 -47 17 -146 21 -220 3 -74 10 -218 16 -319 l11 -185 -62 -120
c-126 -247 -259 -426 -475 -641 -236 -236 -486 -411 -844 -590 -268 -134 -636
-260 -973 -334 l-88 -19 -51 63 c-103 127 -240 212 -386 239 l-64 11 -32 75
c-18 41 -51 102 -74 135 -51 75 -171 189 -247 234 -79 47 -234 98 -341 112
-87 11 -295 8 -376 -7 l-36 -6 16 -64 15 -65 71 8 c83 10 271 9 311 -1 25 -7
21 -10 -58 -45 -136 -60 -309 -183 -419 -298 -56 -59 -142 -161 -158 -191 -8
-14 -17 -12 -77 18 -38 19 -100 44 -139 56 -44 14 -72 29 -76 40 -4 11 -15 71
-24 134 -9 63 -25 165 -35 225 -11 61 -31 184 -45 275 -14 91 -34 217 -45 280
-11 63 -21 137 -22 164 l-3 49 135 28 c356 74 405 86 401 100 -17 63 -22 131
-17 230 10 193 46 284 253 633 148 249 192 340 223 461 54 213 -11 534 -152
750 -29 45 -99 126 -158 185 -166 165 -316 257 -489 301 -70 18 -104 21 -195
17 -101 -5 -195 -25 -219 -47 -4 -5 69 -187 164 -407 195 -455 209 -491 209
-550 0 -78 -73 -137 -170 -137 -63 0 -101 17 -146 65 -30 31 -444 839 -444
866 0 20 -17 14 -50 -20 -164 -163 -253 -422 -236 -682 12 -184 67 -389 156
-583 22 -47 40 -87 40 -88 0 -2 -37 -25 -82 -51 -46 -26 -88 -52 -95 -57 -9
-7 4 -30 49 -90 34 -44 57 -77 51 -74 -10 6 -130 -108 -133 -126 -1 -7 42 -57
189 -217 l32 -35 52 58 c29 31 55 57 58 57 8 0 190 -240 251 -331 24 -37 68
-115 98 -175 30 -60 59 -112 63 -115 9 -6 13 -32 72 -399 19 -124 37 -233 39
-242 2 -10 0 -18 -5 -18 -5 0 -9 7 -9 16 0 12 -8 14 -43 10 -23 -4 -82 -11
-132 -16 -470 -53 -797 -165 -919 -315 -146 -177 -119 -413 80 -697 30 -43 54
-80 54 -83 0 -3 -25 -41 -56 -85 -176 -252 -161 -486 46 -684 43 -41 96 -84
118 -97 l39 -23 6 -90 c8 -134 46 -231 132 -339 83 -104 198 -176 398 -248
294 -107 414 -135 616 -147 l125 -7 26 -160 c15 -88 35 -221 44 -295 20 -152
36 -218 67 -287 79 -172 246 -278 439 -277 47 0 105 7 130 14 l45 14 -70 7
c-178 17 -314 111 -398 275 -25 48 -54 178 -72 319 -9 72 -25 182 -36 245 -10
63 -21 127 -24 142 -4 24 -1 27 35 33 58 10 180 71 223 113 110 105 127 276
45 433 l-30 57 22 41 c32 64 42 138 30 216 -18 114 -74 205 -182 295 l-54 44
105 22 c59 12 117 24 131 28 23 6 28 0 68 -84 90 -187 233 -337 407 -426 78
-40 94 -44 118 -35 15 6 32 22 39 36 19 42 -2 69 -94 116 -142 75 -270 213
-343 372 l-34 76 77 41 c151 78 247 174 307 305 60 131 64 189 15 215 -51 27
-80 4 -109 -90 -56 -179 -180 -289 -419 -369 -204 -68 -545 -109 -683 -82
-164 33 -249 127 -249 276 0 45 1 46 48 66 87 38 246 152 351 254 57 55 154
163 216 240 125 156 240 270 345 340 85 56 209 119 270 135 26 8 56 25 72 42
l26 30 50 -27 c153 -83 276 -247 326 -432 9 -34 32 -97 51 -138 51 -112 101
-266 127 -396 31 -152 33 -441 4 -594 -40 -216 -146 -478 -266 -658 -84 -125
-68 -115 -208 -123 -84 -5 -122 -11 -119 -18 3 -6 10 -36 16 -66 l11 -55 137
8 c131 7 139 9 166 35 34 32 157 213 193 283 l24 49 73 0 c287 0 484 203 551
568 9 46 16 112 17 146 1 35 4 68 8 74 3 5 76 26 161 47 616 149 1200 416
1655 759 160 120 246 196 416 366 l126 126 17 -175 c61 -607 151 -1317 251
-1978 80 -526 214 -1292 234 -1339 17 -39 404 -121 769 -162 89 -10 164 -21
167 -24 3 -2 0 -157 -5 -344 -5 -186 -10 -372 -10 -413 l0 -73 -37 8 c-125 29
-236 -7 -322 -103 l-49 -55 -69 -4 c-122 -8 -189 -60 -230 -177 -28 -79 -24
-345 6 -487 64 -301 143 -488 298 -707 93 -132 270 -318 408 -431 l40 -32
-845 0 c-921 0 -880 3 -894 -56 -5 -17 -1 -35 9 -50 l15 -24 943 0 942 0 66
-44 c116 -78 201 -128 319 -188 l115 -58 -2062 0 -2062 0 -21 -27 c-24 -30
-20 -69 8 -91 13 -10 496 -12 2457 -9 2203 3 2447 5 2510 19 292 67 546 242
683 470 79 132 100 273 52 358 -37 65 -79 90 -154 90 l-61 0 0 88 c0 72 -4 95
-24 132 -59 112 -157 207 -309 299 -107 64 -211 97 -372 116 -307 38 -476 122
-677 336 l-31 34 17 692 c9 381 19 694 22 697 2 3 169 6 369 7 335 2 440 5
800 24 409 20 964 70 1465 131 202 25 213 27 285 65 l74 39 44 -43 c173 -168
348 -436 402 -616 37 -122 17 -251 -50 -324 -22 -23 -17 -26 -147 96 -167 158
-334 261 -440 274 -113 13 -210 -30 -285 -126 -36 -47 -39 -48 -102 -54 -114
-11 -168 -48 -215 -147 -25 -52 -26 -63 -26 -220 0 -192 19 -299 90 -515 80
-245 195 -436 379 -635 223 -239 543 -473 861 -631 l140 -69 -682 0 c-670 0
-683 0 -703 -20 -25 -25 -26 -72 -2 -94 17 -15 91 -16 948 -13 1100 4 1035 3
1154 17 135 15 241 44 347 95 127 60 204 114 299 209 143 143 220 285 230 431
5 60 2 76 -18 115 -33 64 -92 102 -170 109 l-63 6 0 75 c0 62 -5 85 -28 133
-52 106 -190 225 -356 307 -106 53 -164 68 -331 86 -80 8 -179 24 -220 34 -87
22 -180 59 -180 71 0 5 13 24 30 42 51 58 138 205 169 285 146 379 37 800
-331 1285 -72 95 -76 103 -46 110 368 85 510 106 766 114 170 5 192 8 187 22
-2 9 -22 90 -44 181 -143 593 -225 1180 -266 1890 -3 47 -8 132 -11 190 -15
281 -10 1040 10 1480 16 342 64 970 75 983 17 18 482 -137 732 -244 744 -317
1270 -743 1508 -1217 41 -82 111 -272 111 -301 0 -4 -42 -11 -94 -15 -178 -12
-328 -67 -428 -156 -53 -47 -108 -135 -122 -193 l-7 -28 -42 33 c-76 59 -238
222 -288 288 -26 35 -70 107 -96 160 -40 79 -64 111 -138 185 -97 97 -167 144
-272 182 -236 85 -456 18 -546 -168 -89 -181 -69 -419 58 -674 89 -179 222
-336 377 -445 43 -30 65 -52 57 -55 -8 -2 -48 -16 -89 -31 -109 -38 -264 -118
-342 -175 -93 -70 -155 -141 -197 -229 -34 -72 -36 -80 -36 -180 0 -123 26
-220 78 -296 52 -75 117 -113 254 -150 8 -2 5 -19 -9 -56 -28 -72 -31 -211 -4
-286 24 -70 105 -191 161 -240 59 -52 151 -100 218 -113 51 -11 58 -15 88 -63
53 -83 175 -198 259 -244 122 -68 225 -93 377 -93 165 1 334 46 527 142 471
233 837 695 933 1176 26 132 23 321 -9 440 l-24 91 41 12 c157 47 280 155 326
287 23 64 27 177 8 246 -30 114 -131 258 -249 352 -68 55 -69 57 -75 113 -35
331 -96 555 -220 807 -106 216 -229 386 -420 584 -406 420 -1015 797 -1682
1041 -187 69 -438 143 -565 168 -68 13 -88 21 -88 33 0 31 70 549 135 1004
109 759 112 797 70 882 -15 28 -46 67 -70 87 -200 164 -739 313 -1635 451
-124 19 -292 53 -375 75 -177 47 -491 112 -660 136 -66 9 -125 22 -131 28 -6
6 -28 72 -49 146 -20 74 -42 143 -47 153 -12 23 -172 101 -263 129 -38 11 -71
21 -72 22 -5 3 -83 620 -78 624 3 3 52 10 110 15 l105 10 36 58 c142 235 177
450 104 657 -39 110 -140 245 -234 314 -39 28 -40 28 -180 27 -78 -1 -183 -7
-233 -15z m320 -198 c9 -7 17 -18 17 -24 0 -6 5 -14 12 -18 7 -4 8 -3 4 4 -4
7 -5 12 -2 12 7 0 74 -95 78 -110 2 -8 5 -17 9 -20 21 -19 43 -96 47 -162 5
-91 -8 -156 -55 -260 -40 -87 -17 -78 -240 -99 -86 -8 -123 -16 -123 -24 0
-11 60 -465 89 -675 5 -36 8 -66 7 -66 0 -1 -53 4 -116 12 -63 7 -214 16 -335
19 -254 6 -224 -10 -255 137 -38 177 -50 303 -46 482 5 238 43 380 134 509 30
41 36 46 51 35 14 -12 15 -11 2 5 -13 16 -11 21 17 48 17 17 36 28 42 24 6 -4
7 1 3 11 -5 13 -3 16 10 11 9 -3 16 -2 14 2 -3 14 73 62 86 55 7 -4 9 -4 5 1
-16 18 138 75 253 94 87 14 271 13 292 -3z m1714 -2287 c649 -132 1080 -253
1319 -369 167 -81 230 -154 176 -203 -17 -16 -20 -15 -53 19 -100 105 -263
197 -425 241 -92 25 -113 27 -299 27 -168 0 -216 -3 -301 -22 -124 -27 -269
-71 -366 -111 l-73 -31 -18 -72 c-9 -40 -37 -156 -61 -258 -155 -646 -288
-1466 -355 -2200 -96 -1038 -104 -2223 -21 -3195 43 -506 63 -679 125 -1100
30 -203 48 -314 102 -622 5 -29 9 -32 47 -35 l41 -3 -30 -15 c-16 -8 -32 -17
-35 -21 -23 -29 -93 -43 -364 -75 -1493 -174 -2788 -187 -3606 -38 -127 24
-317 68 -325 76 -12 12 -163 891 -229 1338 -93 618 -236 1777 -236 1904 l0 25
68 -26 c43 -17 89 -26 130 -27 61 -1 62 -1 73 -35 6 -18 37 -72 69 -120 54
-80 60 -94 80 -196 49 -250 124 -570 187 -799 l35 -128 -21 -29 c-12 -15 -21
-32 -21 -37 0 -5 18 -21 39 -36 36 -25 42 -37 91 -179 150 -438 338 -835 480
-1016 33 -42 171 -101 455 -196 569 -190 1219 -311 1945 -360 288 -20 1110
-21 1110 -2 0 7 -21 93 -46 192 -209 820 -310 1556 -354 2575 -12 281 -13
1220 -1 1220 8 0 38 -116 68 -268 9 -45 17 -81 18 -80 2 2 -2 147 -7 323 -12
392 -4 1467 11 1625 42 418 110 979 172 1405 26 177 124 757 144 850 8 38 15
82 15 97 0 37 5 37 247 -13z m-5024 -430 l4 -257 -35 -36 c-19 -21 -35 -36
-37 -34 -2 4 9 145 30 358 17 176 27 250 31 235 1 -5 4 -125 7 -266z m19 -641
c2 -13 5 -66 7 -118 l2 -95 -66 -65 -67 -65 6 55 c3 30 6 96 6 145 l1 90 47
37 c26 20 50 37 53 38 4 0 9 -10 11 -22z m818 -68 c242 -26 444 -122 616 -294
131 -131 215 -277 267 -464 18 -65 21 -104 21 -252 0 -161 -3 -182 -27 -263
-92 -299 -280 -521 -550 -647 -339 -159 -729 -118 -1033 108 -291 215 -444
584 -393 948 49 350 298 669 622 794 126 49 199 65 367 78 8 1 58 -3 110 -8z
m2311 -276 c379 -65 721 -305 921 -647 108 -185 178 -445 178 -662 0 -315
-126 -639 -345 -889 -68 -78 -185 -175 -289 -240 -415 -261 -977 -261 -1391
-1 -329 207 -546 526 -612 902 l-17 93 23 31 c84 114 142 223 180 344 42 130
55 234 48 399 l-5 141 54 66 c204 250 505 419 844 472 71 12 324 6 411 -9z
m-7916 -1481 l-17 -58 -39 45 c-21 24 -36 46 -34 48 5 6 99 29 103 26 2 -1 -4
-29 -13 -61z m-116 -15 c-7 -23 -16 -47 -20 -51 -4 -5 -23 8 -42 29 -20 22
-34 40 -32 42 5 5 100 29 103 26 2 -1 -2 -22 -9 -46z m-120 -24 c-18 -71 -17
-70 -59 -29 -22 22 -37 42 -32 46 6 6 94 28 99 24 1 -1 -2 -19 -8 -41z m-109
10 c0 -3 -7 -30 -16 -59 l-15 -54 -33 37 c-19 20 -35 42 -35 47 -1 6 17 15 41
22 53 14 58 14 58 7z m-125 -56 c-4 -18 -12 -44 -17 -58 l-9 -25 -34 40 c-19
22 -34 43 -35 46 0 5 60 23 93 28 5 0 5 -14 2 -31z m555 -150 c0 -7 -65 -28
-87 -28 -16 0 -16 8 -2 51 6 19 13 40 15 48 3 9 16 1 39 -25 19 -21 34 -42 35
-46z m-110 -28 c0 -7 -101 -32 -106 -27 -2 2 3 27 12 57 l16 53 39 -39 c21
-21 39 -41 39 -44z m-120 -30 c0 -8 -101 -32 -107 -26 -4 4 2 30 23 95 3 10
16 3 44 -24 22 -22 40 -42 40 -45z m-120 -30 c0 -7 -103 -30 -108 -25 -3 3 4
33 24 94 3 10 16 3 44 -24 22 -22 40 -42 40 -45z m-128 -31 c-9 -8 -95 -29
-100 -24 -3 3 4 31 24 94 3 10 16 3 44 -24 22 -22 37 -42 32 -46z m5261 -266
c40 -32 82 -65 94 -73 20 -13 25 -34 43 -180 22 -177 71 -522 93 -658 l14 -83
-101 -71 c-56 -39 -126 -89 -156 -110 l-55 -38 -7 67 c-4 38 -18 205 -32 373
-22 265 -32 407 -61 855 l-6 90 51 -57 c28 -31 83 -83 123 -115z m7092 -942
c79 -28 175 -93 235 -158 27 -30 72 -98 100 -151 27 -53 73 -128 102 -167 104
-137 298 -314 482 -439 82 -55 100 -57 276 -21 150 31 193 31 267 4 184 -68
371 -233 486 -429 151 -255 175 -510 76 -805 -177 -529 -725 -989 -1229 -1030
-197 -17 -391 73 -514 236 -46 62 -57 89 -33 89 7 0 46 16 86 35 137 66 259
221 264 336 3 67 -21 62 -84 -18 -29 -37 -71 -85 -93 -106 -95 -89 -252 -177
-317 -177 -79 0 -164 51 -228 134 -57 76 -73 114 -79 182 -6 78 16 146 69 216
21 29 39 56 39 59 0 4 15 10 33 14 72 14 167 50 251 94 133 69 274 211 210
211 -8 0 -72 -26 -142 -59 -243 -112 -437 -165 -550 -150 -73 10 -95 20 -140
62 -40 38 -74 144 -74 228 0 209 248 388 701 505 l134 35 76 -18 c133 -31 313
-22 399 19 22 11 29 32 14 42 -5 3 -71 12 -147 21 -330 38 -521 103 -676 228
-236 190 -389 485 -377 727 12 233 160 329 383 251z m-12187 -196 c0 -16 -2
-15 -8 5 -4 14 -8 34 -8 45 0 16 2 15 8 -5 4 -14 8 -34 8 -45z m29 -180 c12
-82 20 -151 18 -154 -3 -2 -64 6 -137 17 -304 49 -388 55 -417 28 -24 -22 -27
-63 -6 -90 12 -16 46 -23 200 -42 293 -37 525 -89 659 -149 l59 -26 -69 -70
c-114 -116 -263 -220 -377 -264 -60 -23 -67 -31 -77 -107 -14 -100 4 -196 58
-300 8 -17 -210 67 -333 127 -251 122 -501 300 -564 400 -150 237 -163 396
-41 513 118 113 369 191 793 246 100 13 189 23 197 22 11 -1 20 -36 37 -151z
m8745 -109 c-37 -171 -54 -231 -68 -242 -64 -50 -287 -192 -389 -248 -608
-330 -1224 -411 -1749 -229 -229 79 -448 213 -656 402 l-55 49 85 -29 c47 -17
147 -46 223 -64 708 -175 1477 -70 2172 294 135 71 293 166 400 242 44 31 81
55 83 54 1 -1 -20 -104 -46 -229z m-3390 169 c2 -19 3 -35 3 -35 -1 0 -12 9
-25 20 -23 20 -23 21 -4 35 10 8 20 15 20 15 1 0 4 -16 6 -35z m8553 -255
c202 -52 361 -137 480 -256 156 -157 171 -311 37 -402 -48 -32 -121 -62 -152
-62 -10 0 -38 32 -71 83 -69 106 -210 246 -325 324 -185 123 -325 154 -514
114 -52 -10 -97 -18 -99 -16 -10 10 13 77 38 111 34 48 106 88 203 114 94 26
282 21 403 -10z m-11901 -239 c112 -77 213 -237 256 -406 58 -226 36 -545 -50
-721 -26 -54 -83 -123 -134 -162 -22 -18 -119 -52 -146 -52 -26 0 -25 8 4 89
54 149 96 402 96 573 0 230 -57 498 -155 731 -7 16 -4 16 39 -3 26 -11 66 -33
90 -49z m-2519 -701 c180 -91 350 -154 520 -191 75 -16 145 -22 279 -25 106
-3 187 -9 200 -16 40 -21 173 -127 200 -159 64 -75 92 -186 67 -262 -27 -80
-139 -148 -288 -174 -127 -22 -353 -13 -493 20 -239 57 -502 172 -711 312 -63
42 -124 78 -136 81 -29 8 -125 109 -154 164 -20 38 -24 60 -24 136 0 86 2 94
42 175 23 46 58 103 78 126 l36 43 107 -72 c59 -40 184 -111 277 -158z m-15
-757 c294 -141 539 -204 801 -204 183 -1 336 29 427 82 18 10 35 19 38 19 3 0
16 -25 30 -55 37 -80 37 -166 0 -229 -128 -219 -735 -198 -1151 41 -204 117
-280 189 -321 307 -19 51 -34 128 -27 138 2 5 23 -3 46 -18 23 -14 94 -51 157
-81z m10287 -1285 c-3 -8 -6 -5 -6 6 -1 11 2 17 5 13 3 -3 4 -12 1 -19z m-401
-1050 c-64 -237 2 -624 161 -942 200 -402 559 -712 992 -856 277 -93 524 -104
745 -34 169 54 288 133 464 311 140 142 189 175 265 177 32 1 44 -5 68 -32 52
-58 39 -144 -45 -286 -216 -365 -700 -525 -1199 -397 -440 114 -869 410 -1243
856 -152 182 -265 423 -325 695 -33 147 -34 353 -2 421 22 49 55 85 88 99 32
14 38 11 31 -12z m824 -102 c47 -49 47 -50 -11 -84 l-36 -22 -31 68 c-28 60
-62 147 -62 159 0 8 91 -72 140 -121z m-4417 -351 c-13 -38 -17 -88 -17 -210
1 -181 24 -320 88 -516 92 -280 280 -562 505 -755 285 -245 682 -404 1010
-404 290 0 497 92 739 327 142 137 191 167 271 168 51 0 56 -2 78 -34 42 -62
23 -153 -58 -277 -137 -211 -361 -355 -623 -400 -144 -26 -376 -15 -527 24
-507 130 -1026 518 -1356 1012 -162 243 -267 607 -250 871 6 95 24 149 65 193
23 24 82 59 89 52 1 -1 -5 -24 -14 -51z m5015 -184 c20 -10 69 -28 107 -41 39
-12 73 -25 77 -29 5 -4 -31 -20 -80 -36 -70 -24 -104 -30 -177 -30 -62 0 -98
5 -117 15 l-27 15 77 62 c42 34 83 62 90 62 7 1 29 -7 50 -18z m571 -116 c35
-9 101 -33 146 -54 207 -97 334 -229 335 -349 0 -71 -47 -142 -193 -290 -146
-148 -274 -231 -442 -285 -97 -31 -106 -32 -270 -32 -153 1 -180 3 -266 27
-267 75 -589 260 -769 443 -61 62 -64 67 -45 78 33 20 65 25 175 26 111 1 258
-20 453 -65 159 -36 230 -34 324 11 128 62 278 239 379 448 27 55 29 57 69 57
22 0 69 -7 104 -15z m-4403 -175 c119 -111 212 -169 353 -220 l74 -27 -39 -12
c-21 -7 -46 -15 -54 -18 -50 -19 -166 -31 -225 -23 -27 3 -72 16 -98 28 -54
24 -154 116 -199 182 l-30 44 23 15 c13 9 42 34 64 57 22 23 43 42 48 43 4 0
41 -31 83 -69z m776 -295 c180 -38 403 -187 467 -313 34 -68 37 -113 9 -174
-46 -99 -209 -264 -362 -365 -298 -197 -637 -208 -1018 -35 -95 43 -239 130
-338 203 -92 67 -260 225 -260 244 0 20 74 35 176 35 136 0 176 -7 479 -81
163 -39 224 -37 322 12 125 63 278 238 372 427 36 71 39 72 153 47z"/>
<path d="M9097 14409 c7 -7 15 -10 18 -7 3 3 -2 9 -12 12 -14 6 -15 5 -6 -5z"/>
<path d="M8860 14179 c-7 -11 -10 -23 -7 -25 2 -2 9 7 15 21 14 30 7 33 -8 4z"/>
<path d="M6663 10659 c-142 -28 -279 -142 -332 -276 -78 -198 -16 -427 148
-547 27 -20 51 -36 53 -36 2 0 4 22 4 48 0 93 67 162 156 162 27 0 62 -7 77
-15 73 -37 107 -127 77 -199 -9 -21 -16 -41 -16 -43 0 -12 79 11 135 38 68 34
154 113 192 177 39 66 63 155 63 237 0 294 -267 512 -557 454z"/>
<path d="M8730 10264 c-168 -33 -334 -146 -418 -286 -140 -236 -110 -528 75
-728 47 -51 135 -120 152 -120 4 0 5 20 3 45 -6 72 6 113 46 157 86 95 222
103 311 18 59 -57 78 -172 41 -245 -11 -21 -18 -40 -16 -42 7 -8 130 29 175
52 208 105 341 317 341 545 0 261 -164 490 -412 577 -56 20 -96 27 -173 29
-55 1 -111 0 -125 -2z"/>
<path d="M14712 5938 c-127 -120 -163 -148 -263 -198 -41 -21 -81 -45 -87 -53
-42 -51 127 -50 232 2 107 53 233 203 251 302 5 28 3 38 -10 42 -11 5 -47 -23
-123 -95z"/>
<path d="M14975 5724 c-130 -125 -186 -167 -283 -218 -51 -26 -92 -53 -92 -61
0 -38 151 -31 238 11 111 53 252 230 252 316 0 46 -28 34 -115 -48z"/>
<path d="M20815 4528 c4 -24 11 -47 16 -52 15 -16 10 -215 -7 -311 -29 -158
-96 -352 -155 -445 -5 -8 -12 -22 -16 -30 -8 -16 -58 -74 -85 -99 -10 -8 -18
-20 -18 -26 -1 -18 -51 -48 -62 -37 -11 11 -6 160 6 197 4 11 -7 -9 -25 -45
-17 -36 -36 -74 -42 -85 -11 -21 -47 -162 -47 -185 0 -8 -15 -31 -33 -52 -43
-49 -159 -215 -175 -253 -25 -56 -35 -80 -36 -85 -1 -3 -4 -9 -7 -15 -3 -5
-11 -30 -18 -55 -8 -25 -19 -65 -27 -90 -53 -184 -45 -371 25 -565 102 -285
119 -315 214 -385 122 -90 233 -135 355 -144 39 -2 72 -3 72 -1 0 2 -10 21
-22 42 -20 33 -23 51 -22 133 2 77 10 128 47 270 25 96 48 202 52 235 3 32 8
63 11 66 2 4 5 57 5 117 1 78 5 109 14 109 6 0 12 -5 12 -11 0 -21 35 -66 46
-59 6 3 7 1 3 -5 -9 -15 38 -95 49 -85 4 5 5 3 2 -3 -8 -14 78 -185 89 -176 4
4 4 2 1 -4 -4 -7 4 -37 18 -68 14 -31 25 -64 25 -74 1 -15 3 -15 17 3 l16 20
-8 -20 c-11 -27 -10 -38 10 -125 20 -90 14 -192 -15 -252 -17 -35 -17 -38 -2
-26 9 7 19 15 22 18 3 3 28 20 55 39 28 19 64 49 82 67 17 18 34 30 36 27 7
-6 28 33 22 41 -3 3 -2 4 1 1 4 -2 20 12 35 33 30 39 37 58 17 46 -7 -4 -8 -3
-4 5 4 6 11 9 16 6 12 -7 53 51 73 102 33 85 43 261 22 373 -3 14 -7 39 -10
55 -4 17 -10 39 -14 50 -14 35 -31 91 -31 103 0 11 -93 224 -110 252 -56 91
-112 271 -88 286 4 3 3 16 -2 30 -12 32 -12 37 -1 29 5 -3 9 7 9 22 0 16 7 48
16 73 9 25 16 56 16 69 l0 24 -27 -29 c-15 -16 -27 -27 -27 -25 -1 3 -20 -7
-43 -22 -68 -43 -163 -170 -163 -217 0 -11 -4 -20 -10 -20 -5 0 -10 -14 -10
-31 0 -19 -4 -28 -11 -23 -6 3 -8 17 -4 33 4 14 9 40 11 56 9 73 26 133 65
228 22 56 45 106 50 112 5 5 9 16 9 25 0 9 8 32 19 53 24 46 32 77 20 77 -5 0
-9 -5 -9 -11 0 -5 -4 -7 -10 -4 -6 4 -10 -9 -11 -32 -1 -37 -1 -37 -9 -10 -11
38 -4 54 29 65 25 9 29 17 39 83 12 77 13 108 5 197 -3 34 -8 50 -15 46 -7 -5
-9 0 -6 14 4 12 2 22 -4 22 -5 0 -6 5 -3 10 13 21 -91 176 -162 242 -32 29
-68 63 -80 75 -23 22 -75 53 -88 53 -4 0 -4 -19 0 -42z m52 -300 c-3 -8 -6 -5
-6 6 -1 11 2 17 5 13 3 -3 4 -12 1 -19z m293 -208 c-5 -22 -8 -27 -9 -13 -1
21 9 56 14 51 2 -2 0 -19 -5 -38z m-8 -112 c-6 -6 -7 0 -4 19 5 21 7 23 10 9
2 -10 0 -22 -6 -28z m-42 -58 c0 -5 -9 -10 -20 -10 -11 0 -20 5 -20 10 0 6 9
10 20 10 11 0 20 -4 20 -10z m-26 -83 c4 -17 3 -26 -2 -23 -6 3 -12 19 -14 36
-6 37 7 27 16 -13z m163 -219 c-3 -8 -6 -5 -6 6 -1 11 2 17 5 13 3 -3 4 -12 1
-19z m-26 -51 c-10 -9 -11 -8 -5 6 3 10 9 15 12 12 3 -3 0 -11 -7 -18z m-403
-742 c-3 -3 -9 2 -12 12 -6 14 -5 15 5 6 7 -7 10 -15 7 -18z m81 -59 c11 -14
6 -15 -27 -7 -4 1 8 21 12 21 2 0 9 -6 15 -14z m64 -41 c-3 -9 -8 -14 -10 -11
-3 3 -2 9 2 15 9 16 15 13 8 -4z m66 -181 c-13 -16 -25 -11 -40 19 -10 21 -10
21 8 -1 10 -13 22 -20 26 -16 4 4 -1 17 -10 28 -18 21 -18 21 4 2 18 -15 20
-22 12 -32z m21 -18 c0 -2 -7 -7 -16 -10 -8 -3 -12 -2 -9 4 6 10 25 14 25 6z
m-289 -99 c-10 -9 -11 -8 -5 6 3 10 9 15 12 12 3 -3 0 -11 -7 -18z m-2 -57 c0
-10 -3 -8 -9 5 -12 27 -12 43 0 25 5 -8 9 -22 9 -30z m361 2 c0 -15 -2 -15
-10 -2 -13 20 -13 33 0 25 6 -3 10 -14 10 -23z m-430 -357 c0 -5 -5 -3 -10 5
-5 8 -10 20 -10 25 0 6 5 3 10 -5 5 -8 10 -19 10 -25z m17 -157 c-3 -7 -5 -2
-5 12 0 14 2 19 5 13 2 -7 2 -19 0 -25z"/>
<path d="M22327 4133 c-4 -3 -7 -501 -7 -1105 0 -942 2 -1099 14 -1104 8 -3
144 -1 302 5 206 8 292 15 300 23 16 17 36 2156 21 2176 -7 9 -83 12 -317 12
-168 0 -310 -3 -313 -7z"/>
<path d="M17975 4088 c-3 -7 -4 -546 -3 -1198 l3 -1185 345 1 c368 0 512 10
727 50 211 38 349 88 472 168 189 123 284 309 268 526 -11 166 -105 312 -277
433 l-25 17 25 18 c172 120 266 266 277 432 14 189 -58 360 -200 478 -233 192
-622 272 -1335 272 -209 0 -274 -3 -277 -12z m945 -494 c140 -31 220 -107 228
-214 6 -76 -1 -102 -40 -145 -56 -64 -185 -113 -340 -130 l-68 -7 0 262 0 262
78 -7 c42 -3 106 -13 142 -21z m-50 -914 c178 -37 268 -101 278 -200 7 -77 -5
-117 -51 -167 -66 -72 -184 -115 -339 -126 l-58 -4 0 259 0 258 38 0 c20 0 80
-9 132 -20z"/>
<path d="M13762 4038 c-10 -14 -14 -88 -62 -1268 -36 -889 -36 -878 -24 -889
13 -13 574 -35 586 -23 6 6 16 256 24 617 7 334 15 609 17 611 2 2 70 -231
151 -519 82 -287 157 -550 168 -584 l19 -63 189 0 c170 0 190 2 198 18 5 9 33
100 61 202 93 336 270 955 271 950 1 -3 8 -279 15 -614 8 -370 17 -612 23
-618 10 -10 510 15 570 28 21 4 22 9 22 92 0 48 -9 303 -20 567 -11 264 -29
701 -40 970 -11 270 -22 500 -25 513 l-5 22 -328 0 c-180 0 -332 -4 -339 -8
-7 -4 -53 -133 -103 -287 -51 -154 -128 -390 -172 -525 -44 -135 -90 -276
-102 -315 l-23 -70 -196 596 c-132 400 -202 599 -213 603 -9 3 -159 6 -334 6
-242 0 -320 -3 -328 -12z"/>
<path d="M21738 4031 c-103 -34 -196 -120 -226 -210 -7 -19 -12 -66 -12 -105
0 -91 28 -154 99 -219 135 -126 334 -142 489 -40 97 65 141 147 142 263 0 129
-66 227 -196 291 -83 41 -207 50 -296 20z"/>
<path d="M23564 3675 c-299 -65 -527 -418 -564 -873 -29 -359 72 -617 313
-798 126 -94 276 -151 461 -174 172 -22 416 3 515 52 l46 23 -1 95 c-2 180
-14 289 -33 299 -11 7 -52 -1 -128 -24 -272 -83 -450 -68 -566 48 -38 38 -88
132 -102 191 l-6 29 223 -7 c123 -3 284 -9 359 -13 l137 -6 26 40 c66 99 103
372 76 567 -35 254 -132 414 -306 501 -122 61 -307 81 -450 50z m293 -530 c14
-9 34 -37 45 -63 18 -39 20 -59 15 -131 -3 -48 -10 -98 -16 -112 -10 -27 -10
-27 -148 -33 -76 -4 -162 -8 -191 -10 -34 -2 -55 1 -58 9 -8 19 25 156 52 216
47 104 122 153 222 145 30 -3 65 -12 79 -21z"/>
<path d="M16193 3663 c-4 -10 1 -189 10 -398 9 -209 26 -605 38 -880 12 -275
26 -511 31 -524 l9 -24 277 7 c191 5 281 11 289 19 9 9 9 50 3 162 -5 83 -16
304 -26 493 l-17 343 49 50 c88 90 226 141 420 156 l99 8 0 242 c0 175 -3 245
-12 254 -20 20 -150 23 -232 5 -86 -18 -213 -78 -291 -136 -54 -41 -55 -41
-62 -18 -3 13 -6 67 -7 121 -1 54 -6 107 -11 118 -10 18 -24 19 -286 19 -251
0 -275 -2 -281 -17z"/>
<path d="M24583 3663 c-4 -10 3 -242 15 -518 12 -275 30 -671 39 -880 9 -209
20 -391 25 -404 l9 -24 282 8 c195 5 284 10 290 18 4 7 5 35 2 62 -3 28 -15
249 -26 493 l-22 443 49 50 c88 90 226 141 420 156 l99 8 3 205 c4 262 1 285
-40 299 -114 40 -346 -25 -498 -139 -54 -41 -55 -41 -62 -18 -3 13 -6 67 -7
121 -1 54 -6 107 -11 118 -10 18 -24 19 -286 19 -250 0 -275 -2 -281 -17z"/>
<path d="M21579 3193 c-10 -27 -6 -417 7 -643 4 -64 1 -124 -10 -185 -18 -106
-29 -502 -15 -528 9 -15 35 -17 289 -17 240 0 281 2 294 16 12 11 16 35 16 89
0 40 7 342 15 671 11 430 13 600 5 608 -7 7 -109 12 -301 14 l-289 3 -11 -28z"/>
<path d="M10135 525 c-30 -29 -32 -65 -7 -88 17 -16 211 -17 2585 -17 l2566 0
20 26 c26 33 27 58 1 84 -20 20 -33 20 -2580 20 l-2561 0 -24 -25z"/>
</g>
</svg>
