<?xml version="1.0" encoding="UTF-8"?> <svg xmlns="http://www.w3.org/2000/svg" xmlns:xlink="http://www.w3.org/1999/xlink" viewBox="0 0 708.3 562.3"><clipPath id="a"><path d="m163 202.5h382.3v82.4h-382.3z"></path></clipPath><ellipse cx="354.1" cy="281.1" fill="#fff" rx="344.1" ry="271.1"></ellipse><path d="m354.1 562.3c-94.2 0-182.8-29-249.5-81.6-32.7-25.8-58.4-55.8-76.4-89.3-18.7-34.9-28.2-72-28.2-110.2s9.5-75.4 28.2-110.3c18-33.5 43.7-63.6 76.4-89.3 66.8-52.6 155.4-81.6 249.5-81.6s182.8 29 249.5 81.6c32.7 25.8 58.4 55.8 76.4 89.3 18.7 34.9 28.2 72 28.2 110.3s-9.5 75.4-28.2 110.3c-18 33.5-43.7 63.6-76.4 89.3-66.7 52.5-155.3 81.5-249.5 81.5zm0-542.2c-184.2 0-334 117.1-334 261s149.8 261 334 261 334-117.1 334-261-149.8-261-334-261z" fill="#e81c30"></path><path d="m591.6 199.1c-20.8-34.1-54-62.9-96-83.2-42.9-20.8-92.6-31.5-143.9-31-50.1.4-98.7 11.5-140.5 32.1-40.9 20.2-73.6 48.4-94.5 81.7-1.6 2.6-.8 6 1.7 7.6.9.6 1.9.9 3 .8 1.8 0 3.6-.9 4.6-2.6 19.8-31.5 50.9-58.4 90-77.6 40.4-19.9 87.3-30.6 135.8-31 99-.9 189.5 41.9 230.4 109 1 1.7 2.9 2.6 4.8 2.6 1 0 1.9-.3 2.8-.8 2.6-1.6 3.4-5 1.8-7.6z" fill="#ebebeb"></path><path d="m589.8 350.5c-2.6-1.6-6-.8-7.6 1.8-19.7 31.6-50.8 58.5-89.9 77.8-40.3 20-87.3 30.8-135.8 31.3-99.1 1-189.6-41.6-230.6-108.6-1.6-2.6-5-3.4-7.6-1.8s-3.4 5-1.8 7.6c20.9 34.1 54.1 62.8 96.2 83.1 42.9 20.7 92.7 31.3 143.9 30.8 50.1-.5 98.7-11.7 140.5-32.4 40.9-20.2 73.5-48.5 94.4-81.8 1.7-2.8.9-6.2-1.7-7.8z" fill="#ebebeb"></path><path d="m242.2 203.9-9.5 49.4h-.1l-10.1-49.4h-19.1l-9.9 49.4h-.1l-9.5-49.4h-21.6l18.3 79.6h21.8l10.2-48.8h.1l10.4 48.8h21.5l18.4-79.6z"></path><g clip-path="url(#a)"><path d="m507.4 256.8v-2.1c0-7.7 3.3-12.7 8.1-17.1.9-.8 1.9-1.6 2.8-2.3 3.2-2.6 6-4.9 6-8.6 0-4.2-2.8-6.6-7.2-6.6-4 0-7.1 2.6-8.5 7.1l-.2.6h-19.8c1.5-16.3 13.9-25.2 30.1-25.2 16.3 0 26.6 8.8 26.6 21.9 0 8.9-5 13.4-9.4 17.4-5.3 4.9-7.9 8.6-8 12.9v2.1z"></path><path d="m483 265.4h45v18.1h-45z" fill="#e81c30"></path><path d="m452.9 283.5v-34.4c0-8.4-8.4-10.9-12.6-3.2-1.5 2.7-2.1 6.5-2.1 11.8v25.8h-20.4v-79.6h20.4v34.8c6.8-14.4 22.8-16.2 30.7-7.5 2.9 3.2 4.4 7.8 4.4 13.6v38.7z"></path><path d="m302.9 283.5v-34.4c0-8.4-8.4-10.9-12.6-3.2-1.5 2.7-2.1 6.5-2.1 11.8v25.8h-20.4v-79.6h20.4v34.8c6.8-14.4 22.8-16.2 30.7-7.5 2.9 3.2 4.4 7.8 4.4 13.6v38.7z"></path><path d="m331.2 227.3h20.4v56.2h-20.4z"></path><path d="m412.2 262.6c-.9 12.6-10.4 22.3-25.3 22.3-18 0-29.1-11.3-29.1-29.5s11.2-29.5 28.7-29.5c13.7 0 24.4 6.9 25.5 22.2h-17.7c-.8-3.8-2.9-7.7-7.8-7.7-7.8 0-9.1 9.6-9.1 15 0 6.6 1.8 15 9 15 3.6 0 6.4-2.9 7.8-7.7z"></path><path d="m341.4 223.5c-5.6 0-11.3-3.6-11.3-10.4s5.7-10.6 11.3-10.6 11.3 3.6 11.3 10.6-5.7 10.4-11.3 10.4"></path></g><path d="m152.5 350v-33.3h-13.2v-8.8h37.2v8.8h-13.3v33.3z"></path><path d="m199.1 328.2c-1-.4-2.5-.7-4-.7-3.8 0-6.9 2.5-6.9 7.9v14.6h-10.4v-31.9h9l1.2 7.2c1.3-5.4 5.5-8.8 11.6-7.8z"></path><path d="m223.7 344.2c-1.4 4.3-4.9 6.5-9.7 6.5-5.4 0-10-3.4-10-10.3v-22.3h10.4v19.4c0 3.1 1.4 5 4.1 5 2.9 0 5-2.1 5-6.9v-17.5h10.4v31.9h-8.9z"></path><path d="m246.2 340.1c.4 2.3 2.6 3.9 5.2 3.9s4.4-1 4.4-3c0-5.5-17.2-.6-17.2-12.9 0-7 6.1-10.7 13.5-10.7s12.3 3.3 13.2 9.3l-8.6 1c-.2-2.2-1.8-3.6-4.5-3.6-2.4 0-3.8 1.1-3.8 3 0 5.6 17.3.4 17.3 13.1 0 6.9-5.9 10.6-14.2 10.6-6.9 0-12.5-2.8-13.9-8.7z"></path><path d="m292.5 348.1c-2.3 1.7-5.4 2.6-8.7 2.6-6.7 0-11.4-3.3-11.4-10.8v-14.2h-4.1v-7.6h4.2v-6.7l10.4-1.3v8h8.2v7.6h-8.3v12.9c0 2.6 1.3 3.8 3.6 3.8 1.7 0 3.1-.5 4.8-1.6z"></path><path d="m316.8 339 8.4 2.9c-2 6.2-7.7 8.9-13.9 8.9-9.6 0-15.8-6.1-15.8-16.4s6-17 16-17c9.3 0 13.9 6.4 13.9 14.3 0 1.3-.2 3.1-.6 4.2h-19.3c.1 4.5 2.5 7.2 6 7.2 2.6 0 4.4-1.3 5.3-4.1zm-1.1-8c.1-.4.1-.9.1-1.5 0-2.6-1.6-4.9-4.5-4.9-3.2 0-5.4 2.4-5.7 6.3z"></path><path d="m352 344.2c-1.3 4.4-5 6.6-9.6 6.6-7.1 0-12.8-5.9-12.8-16 0-11.1 5.4-17.4 13.4-17.4 4.5 0 7.6 2 8.8 4.9v-17.7h10.5v45.4h-9zm-.3-12.6c0-4.5-2.7-6.6-5.5-6.6-3.8 0-6 3.1-6 9.5 0 5.4 2.3 8.3 5.9 8.3 3.1 0 5.7-2.4 5.7-7.4v-3.8z"></path><path d="m389.8 350v-33.3h-13.2v-8.8h37.2v8.8h-13.3v33.3z"></path><path d="m437.6 328.2c-1-.4-2.5-.7-4-.7-3.8 0-6.9 2.5-6.9 7.9v14.6h-10.4v-31.9h9l1.2 7.2c1.3-5.4 5.5-8.8 11.6-7.8z"></path><path d="m467.4 340.8c0 1.6.9 2.3 2 2.3.7 0 1.3-.2 1.8-.7l.4 6.7c-1.5 1-3.6 1.6-5.7 1.6-2.9 0-5.2-1.1-6.5-2.9-.5-.6-.8-1.3-1.1-2.1-1.3 3.1-5 5-9.2 5-6 0-10.1-3.4-10.1-9.3 0-6.4 5.5-9.9 14.5-9.9 1.3 0 2.9.1 4 .2v-3.2c0-2.3-1.2-3.7-3.6-3.7s-3.8 1.6-3.8 4.3l-9.5-1.3c.6-6.4 5.7-10.3 13.7-10.3 9.1 0 13.2 4 13.2 10.7zm-10-4c-.6-.1-1.4-.1-2.2-.1-4.2 0-6.3 1.3-6.3 3.9 0 2 1.4 3.3 3.8 3.3s4.7-1.4 4.7-5.2z"></path><path d="m496.6 344.2c-1.3 4.4-5 6.6-9.6 6.6-7.1 0-12.8-5.9-12.8-16 0-11.1 5.4-17.4 13.4-17.4 4.5 0 7.6 2 8.8 4.9v-17.7h10.5v45.4h-9zm-.2-12.6c0-4.5-2.7-6.6-5.5-6.6-3.8 0-6 3.1-6 9.5 0 5.4 2.3 8.3 5.9 8.3 3.1 0 5.7-2.4 5.7-7.4v-3.8z"></path><path d="m533.6 339 8.4 2.9c-2 6.2-7.7 8.9-13.9 8.9-9.6 0-15.8-6.1-15.8-16.4s6-17 16-17c9.3 0 13.9 6.4 13.9 14.3 0 1.3-.2 3.1-.6 4.2h-19.3c.1 4.5 2.5 7.2 6 7.2 2.6 0 4.5-1.3 5.3-4.1zm-1-8c.1-.4.1-.9.1-1.5 0-2.6-1.6-4.9-4.5-4.9-3.2 0-5.3 2.4-5.7 6.3z"></path><path d="m569.2 328.2c-1-.4-2.5-.7-4-.7-3.8 0-6.9 2.5-6.9 7.9v14.6h-10.4v-31.9h9l1.2 7.2c1.3-5.4 5.5-8.8 11.6-7.8z"></path></svg> 