<svg enable-background="new 0 0 250 250" viewBox="0 0 250 250" xmlns="http://www.w3.org/2000/svg"><g fill="#00549f"><path d="m245.8 1.8h-241.6c-2.6 0-4.7 2.1-4.7 4.7v166.7c0 2.6 2.1 4.7 4.7 4.7h74.8c.1 1.1.3 2.2.5 3.5l-22.7 27.1c-.8 1-1.2 2.2-1.1 3.4s.7 2.4 1.6 3.2c.6.5 1.2.8 1.9 1l24.9 6 10.2 23.5c.5 1.1 1.4 2 2.6 2.5.6.2 1.1.3 1.7.3s1.3-.1 1.9-.4c.7-.3 1.3-.7 1.7-1.3l22.7-27h.3l22.7 27c1.7 2 4.6 2.2 6.6.6.6-.5 1-1.1 1.3-1.7l10.2-23.5 24.9-6c1.2-.3 2.2-1 2.9-2.1s.9-2.3.6-3.5c-.2-.7-.5-1.4-1-1.9l-22.7-27.1c.2-1.3.4-2.4.5-3.5h74.8c2.6 0 4.7-2.1 4.7-4.7v-166.8c-.2-2.6-2.3-4.7-4.9-4.7zm-163.1 190.2c.5 1.2 1.1 2.3 1.7 3.5.3.5.6 1 .8 1.5.6 1 1.2 1.9 1.8 2.8.5.6.9 1.3 1.4 1.9l1.8 2.1c.6.7 1.4 1.5 2 2.2.5.5 1.1 1 1.6 1.5l.5.5c.3.3.6.5.9.8.3.2.6.4.8.6.2.1.4.3.5.4s.2.1.2.2l.3.3c.2.2.5.3.7.5.1.1.3.2.4.3l.5.4c.4.3.8.6 1.3.9 1.1.7 2.4 1.4 3.7 2.1.4.2.8.4 1.2.6l.2.1c1.1.5 2.3 1 3.4 1.4l.4.2c.2.1.4.2.6.2 1.3.5 2.7.9 4.1 1.2l-13.9 16.6-7.8-18.8c-.6-1.3-1.8-2.3-3.2-2.7l-19.8-4.7zm29.6 15.9c-.5-.2-1-.4-1.5-.6-.3-.1-.6-.3-.9-.4-.7-.3-1.3-.6-2-.9l-.3-.2c-1.7-.9-3.3-1.9-4.9-3.1-.9-.6-1.7-1.4-2.4-2-.9-.8-1.8-1.7-2.6-2.6-.1-.1-.3-.3-.4-.4-.2-.2-.4-.4-.6-.7-1.1-1.3-2.2-2.8-3.1-4.3-.1-.1-.1-.2-.2-.3s-.2-.3-.2-.4c-.9-1.5-1.6-3-2.3-4.5l-.2-.4c-.7-1.8-1.3-3.6-1.7-5.5 0-.1-.1-.2-.1-.2-.6-2.7-.9-5.4-.9-8.1 0-20.4 16.6-37 37-37 20.4 0 37 16.6 37 37 0 2.8-.3 5.5-.9 8.2 0 .1-.1.1-.1.2-.4 1.9-1 3.7-1.7 5.5-.1.1-.1.3-.2.4-.7 1.6-1.4 3.1-2.3 4.5l-.1.3c-.1.1-.2.3-.3.4-.9 1.5-2 2.9-3.1 4.3-.2.2-.4.4-.6.6-.1.1-.3.3-.4.4-.8.9-1.7 1.8-2.7 2.6l-.2.2c-.7.6-1.4 1.3-2.2 1.9-.9.7-1.7 1.2-2.5 1.7-.7.5-1.5.9-2.3 1.3l-.2.1c-.1.1-.2.1-.3.2-.6.3-1.2.6-1.9.9l-.2.1c-.2.1-.5.2-.7.3-.5.2-.9.4-1.4.5l-.3.1c-.4.1-.9.3-1.3.4-.2.1-.4.1-.7.2l-.2.1c-.8.2-1.5.4-2.2.6l-.3.1c-1.9.4-3.8.7-5.8.8h-.4c-1 .1-2 .1-3.1 0h-.5c-1.9-.1-3.8-.4-5.7-.8l-.3-.1c-.8-.2-1.5-.4-2.2-.6l-.3-.1c-.2-.1-.4-.1-.6-.2-.4-.1-.8-.3-1.2-.4zm28 9c.2-.1.4-.1.5-.2s.3-.1.4-.2c1.2-.5 2.4-1 3.5-1.5l.3-.1c.4-.2.7-.3 1.1-.5 1.4-.7 2.6-1.4 3.7-2.1.4-.3.8-.6 1.3-.9l.9-.6c.3-.2.5-.4.8-.6.1-.1.3-.2.4-.3s.2-.2.3-.2c.2-.2.4-.3.6-.4.2-.2.5-.4.7-.5.2-.2.5-.4.7-.7l.6-.6c.6-.5 1.1-1 1.6-1.5.7-.7 1.4-1.4 2-2.1s1.2-1.4 1.8-2.1c.5-.6 1-1.3 1.4-1.9.7-.9 1.3-1.9 1.8-2.8.3-.5.6-1 .8-1.5.6-1.1 1.2-2.3 1.7-3.5l13.9 16.6-19.8 4.7c-1.4.3-2.6 1.3-3.2 2.7l-8.1 18.7-13.9-16.6c1.5-.4 2.9-.8 4.2-1.3zm-19.4-89.9c-22.2 2-39.7 19.4-41.9 41.5h-70.2v-157.3h232.3v157.3h-70.1c-2.4-25.2-24.8-43.8-50.1-41.5z"/><path d="m20.8 18.5c-2.6 0-4.7 2.1-4.7 4.7v17.2h9.3v-12.6h12.6v-9.3z"/><path d="m229.2 18.5h-17.2v9.3h12.5v12.5h9.3v-17.1c0-2.6-2.1-4.7-4.6-4.7z"/><path d="m224.5 139.3v12.5h-12.5v9.3h17.2c2.6 0 4.7-2.1 4.7-4.7v-17.2h-9.4z"/><path d="m25.5 151.8v-12.5h-9.3v17.2c0 2.6 2.1 4.7 4.7 4.7h17.1v-9.3h-12.5z"/><path d="m74.5 47.7h101v9.3h-101z"/><path d="m49.5 72.7h151v9.3h-151z"/><path d="m125 143.5c-16.4 0-29.7 13.3-29.7 29.7 0 16.3 13.3 29.6 29.7 29.7 16.4 0 29.7-13.3 29.7-29.7s-13.3-29.7-29.7-29.7zm20.3 29.7c0 11.2-9.1 20.3-20.3 20.3s-20.3-9.1-20.3-20.3 9.1-20.3 20.3-20.3c11.2-.1 20.3 9 20.3 20.3z"/><path d="m74.5 99h101v9.3h-101z"/></g></svg>