<?xml version="1.0" encoding="utf-8"?>
<!-- Generator: Adobe Illustrator 24.1.0, SVG Export Plug-In . SVG Version: 6.00 Build 0)  -->
<svg version="1.1" id="Layer_1" xmlns="http://www.w3.org/2000/svg" xmlns:xlink="http://www.w3.org/1999/xlink" x="0px" y="0px"
	 viewBox="0 0 156 156" style="enable-background:new 0 0 156 156;" xml:space="preserve">
<style type="text/css">
	.st0{fill:#FFFFFF;stroke:#A0BB0B;stroke-miterlimit:10;}
	.st1{fill:#FFFFFF;}
</style>
<path class="st0" d="M245,49.2C245,49.2,245,49.3,245,49.2z"/>
<path class="st1" d="M112.9,85.8c-3.3-3.3-8.5-3.1-11.6,0l-1.9,1.9l-5.8-5.8l15.2-15.2c10.7,3.5,22.6,0.7,30.6-7.4
	c8.5-8.5,11.1-21.2,6.8-32.3c-0.3-0.9-1.1-1.5-2-1.7s-1.8,0.1-2.5,0.7l-16.5,16.5c-5.2-2.2-9.4-6.4-11.6-11.6L130,14.4
	c0.7-0.7,0.9-1.6,0.7-2.5s-0.8-1.7-1.7-2c-11.2-4.4-23.8-1.7-32.3,6.8c-8,8-10.8,19.9-7.4,30.6L74.1,62.5L53.8,42.2l-2.6-13.5
	c-0.1-0.8-0.6-1.4-1.3-1.8L19.8,8.3c-1.1-0.7-2.5-0.5-3.4,0.4l-7.7,7.7c-0.9,0.9-1.1,2.3-0.4,3.4L26.9,50c0.4,0.7,1.1,1.1,1.8,1.3
	l13.5,2.6l20.3,20.3l-50.6,50.6c-5.4,5.4-5.4,14,0,19.4s14,5.4,19.4,0l50.6-50.6l5.8,5.8l-1.9,1.9c-3.2,3.2-3.2,8.4,0,11.6
	l29.7,29.7c7.5,7.5,19.6,7.5,27.1,0s7.5-19.6,0-27.1L112.9,85.8z M94.4,49.9c0.8-0.8,1-1.9,0.6-2.9c-3.6-9.1-1.4-19.5,5.5-26.5
	c5.9-5.9,14.3-8.3,22.3-6.8l-14.5,14.5c-0.7,0.7-1,1.8-0.7,2.8c2.7,8.1,9.1,14.5,17.2,17.2c1,0.3,2.1,0.1,2.8-0.7L142.1,33
	c1.6,8-0.9,16.4-6.8,22.3c-6.9,6.9-17.3,9.1-26.4,5.5c-1-0.4-2.2-0.2-2.9,0.6L89.6,78L78,66.4L94.4,49.9z M27.4,140.3
	c-3.2,3.2-8.4,3.2-11.6,0s-3.2-8.4,0-11.6l50.6-50.6L78,89.7L27.4,140.3z M45.5,49.3c-0.4-0.4-0.9-0.7-1.4-0.8L31,46L14.1,18.7
	l4.7-4.7l27.4,16.8L48.6,44c0.1,0.5,0.4,1,0.8,1.4l46.1,46.1l-3.9,3.9C48.1,52,45.6,49.4,45.5,49.3L45.5,49.3z M138.7,138.7
	c-5.4,5.4-14,5.4-19.4,0L89.6,109c-1.1-1.1-1.1-2.8,0-3.9l15.5-15.5c1.1-1.1,2.8-1.1,3.9,0l29.7,29.7
	C144,124.6,144,133.3,138.7,138.7z"/>
</svg>
