<svg enable-background="new 0 0 512 512" viewBox="0 0 512 512" xmlns="http://www.w3.org/2000/svg"><path d="m228.4 416c-3.5 0-6.7-1.9-8.5-4.9-32.7-55.7-119.9-174.4-120.8-175.6-2.9-3.9-2.5-9.4 1-12.8l26.8-26.5c3.4-3.3 8.7-3.8 12.6-1.1l86.9 60.7c58.1-74.5 112.1-126 147.6-156.4 40-34.2 65.4-49.6 66.5-50.2 1.5-.9 3.3-1.4 5.1-1.4h43.4c5.4 0 9.8 4.4 9.8 9.8 0 2.8-1.2 5.5-3.3 7.4-123.2 109.6-257.2 343.6-258.5 346-1.7 3.1-5 4.9-8.6 5z" fill="#9bb82c"/><path d="m226.6 457c-97.7 0-177.2-79.5-177.2-177.2s79.5-177.2 177.2-177.2c19.6 0 39.1 3.2 57.6 9.6 5.1 1.8 7.9 7.4 6.1 12.5s-7.4 7.9-12.5 6.1c-16.5-5.7-33.8-8.5-51.2-8.5-86.9-.1-157.6 70.6-157.6 157.5s70.7 157.5 157.5 157.5 157.5-70.7 157.5-157.5c0-10.7-1.1-21.3-3.2-31.7-1.1-5.3 2.3-10.5 7.7-11.6 5.3-1.1 10.5 2.3 11.6 7.7 2.4 11.7 3.6 23.7 3.6 35.7.1 97.6-79.4 177.1-177.1 177.1z" fill="#00549f"/></svg>