<svg enable-background="new 0 0 250 250" viewBox="0 0 250 250" xmlns="http://www.w3.org/2000/svg"><g fill="#00549f"><path d="m75.4 110c2.2 6.8 5.9 12.8 10.9 17.8l15.4 15.4c3.9 3.9 8.8 6 14.2 6h18.5c5.4 0 10.4-2.1 14.3-6l15.4-15.4c5-5 8.7-11 10.9-17.8l.2-.6h.7c9.8-1.6 17-9.9 17-19.9 0-6-2.8-11.8-7.4-15.6l-.4-.2v-12c-.4-32.9-27.4-59.7-60.1-59.7-16.7 0-32.7 7-43.9 19.3l-.2.4h-39.4v4.4c0 18.4 9.5 35.1 25.5 44.7l1.4.8-1.5.8c-5.9 3.8-9.4 10.2-9.4 17.1 0 10 7.2 18.3 17 19.9h.6zm92.6-13.2c0 9.3-3.6 18.1-10.1 24.8l-15.4 15.4c-2.1 2.1-5 3.2-8.1 3.2h-18.5c-2.9 0-5.8-1.1-7.9-3.2l-15.3-15.4c-6.5-6.5-10.1-15.4-10.1-25v-19.8l1.2.2c2.3.5 5.9 1 10.2 1h74.6zm8.7-17.9 1.5.8c3.4 2 5.5 5.6 5.5 9.7.1 3.9-2 7.5-5.5 9.5l-1.5.8zm-103.5 21.2-1.6-1c-3.3-2.1-5.3-5.7-5.3-9.7s2-7.6 5.3-9.6l1.6-1zm-22.2-68.3-.2-1.2h70.9v-8.7h-28.2l2.6-1.8c8.8-6 18.8-9.2 29-9.2 28.1 0 50.9 22.8 50.9 50.9v7.7l-1.2-.2c-.8-.1-1.6-.2-2.2-.2h-79c-21.5 0-39.9-16-42.6-37.3z"/><path d="m224.2 195.1c-2.7-16-13.9-29.3-29.5-34.5l-33.6-11.1v-5.2h-8.8v6.7l-.2.2c-2.6 2.6-10.4 8.6-27.1 8.6-15.4 0-23.4-5.4-26.9-8.6l-.4-.2v-6.8h-8.7v5.2l-33.6 11.1c-15.5 5.1-26.8 18.4-29.5 34.5l-8.9 52.9h215.9zm-132.3-37.4.4.4c4.3 4 14.4 10.9 32.6 10.9 18.3 0 28.3-6.8 32.7-10.9l.4-.4 13.4 4.4-10.4 45.2h-6.3v.1h-13.5-32.9v-.1h-13.1-6.7l-10.2-45.1zm-11.5 53.9c-2.1 2.1-3.4 5.1-3.4 8.2v19.3h-14.4l3.4-35.1-8.7-1-3.6 36h-26.2l7.1-42.6c2.1-12.9 11.1-23.4 23.4-27.5l12.1-3.9 10.6 46zm22.8 6.4c-4 4.9-6.2 11.1-6.2 17.7 0 .7 0 1.5.1 2.2l.2 1.2h-11.3v-19.3c0-1.9 1.5-3.4 3.4-3.4h15zm40.9 20.2-.2.8h-37.8l-.2-.8c-.1-.9-.2-1.8-.2-2.6 0-10.6 8.6-19.3 19.2-19.3s19.3 8.7 19.3 19.3c.1.9 0 1.7-.1 2.6zm19.9.8h-11.3l.2-1.2c.1-.7.1-1.5.1-2.2.1-6.5-2-12.6-6.2-17.7l-1.4-1.6h15.2c1.9 0 3.4 1.5 3.4 3.4zm32.3-.2-3.6-36-8.8.9 3.4 35.1h-14.3v-19.3c0-3.1-1.2-6-3.4-8.4l-.4-.4 10.7-46.1 12.1 4.1c12.3 4.1 21.3 14.6 23.4 27.5l7.1 42.6z"/></g></svg>