<svg enable-background="new 0 0 399 161" viewBox="0 0 399 161" xmlns="http://www.w3.org/2000/svg"><g fill="#757476"><path d="m42.567 159.007-6.88-12.152h-2.949v12.152h-6.255v-31.184h11.705c2.413 0 4.468.424 6.166 1.273s2.971 1.995 3.82 3.439c.849 1.445 1.273 3.061 1.273 4.848 0 2.055-.596 3.909-1.787 5.562-1.192 1.653-2.964 2.793-5.316 3.418l7.46 12.644zm-9.828-16.843h5.227c1.698 0 2.963-.409 3.797-1.229.833-.819 1.251-1.958 1.251-3.418 0-1.43-.417-2.539-1.251-3.328s-2.1-1.185-3.797-1.185h-5.227z"/><path d="m77.951 148.508h-18.094c.148 1.787.774 3.188 1.876 4.199 1.102 1.014 2.457 1.52 4.065 1.52 2.323 0 3.976-.998 4.959-2.993h6.746c-.715 2.383-2.085 4.341-4.11 5.875s-4.512 2.301-7.461 2.301c-2.383 0-4.52-.528-6.411-1.586-1.892-1.058-3.366-2.554-4.423-4.49-1.058-1.936-1.586-4.17-1.586-6.701 0-2.562.521-4.81 1.564-6.746 1.042-1.936 2.502-3.425 4.378-4.468 1.876-1.042 4.036-1.563 6.478-1.563 2.353 0 4.46.507 6.322 1.519 1.861 1.013 3.306 2.45 4.333 4.312 1.028 1.861 1.542 3.998 1.542 6.411 0 .891-.06 1.695-.178 2.41zm-6.3-4.199c-.03-1.608-.611-2.896-1.742-3.864-1.132-.968-2.518-1.452-4.155-1.452-1.549 0-2.852.469-3.909 1.407-1.058.938-1.706 2.241-1.944 3.909z"/><path d="m93.006 153.243 6.255-18.987h6.657l-9.159 24.751h-7.595l-9.114-24.751h6.701z"/><path d="m109.87 130.258c-.73-.699-1.094-1.57-1.094-2.613s.364-1.914 1.094-2.614c.729-.699 1.646-1.05 2.748-1.05 1.101 0 2.017.351 2.748 1.05.729.7 1.094 1.571 1.094 2.614s-.365 1.914-1.094 2.613c-.73.7-1.646 1.05-2.748 1.05s-2.018-.35-2.748-1.05zm5.831 3.998v24.751h-6.255v-24.751z"/><path d="m144.696 148.508h-18.094c.148 1.787.774 3.188 1.876 4.199 1.102 1.014 2.457 1.52 4.065 1.52 2.323 0 3.976-.998 4.959-2.993h6.746c-.715 2.383-2.085 4.341-4.11 5.875s-4.512 2.301-7.461 2.301c-2.383 0-4.52-.528-6.411-1.586-1.892-1.058-3.366-2.554-4.423-4.49-1.058-1.936-1.586-4.17-1.586-6.701 0-2.562.521-4.81 1.564-6.746 1.042-1.936 2.502-3.425 4.378-4.468 1.876-1.042 4.036-1.563 6.478-1.563 2.353 0 4.46.507 6.322 1.519 1.861 1.013 3.306 2.45 4.333 4.312 1.028 1.861 1.542 3.998 1.542 6.411 0 .891-.06 1.695-.178 2.41zm-6.3-4.199c-.03-1.608-.611-2.896-1.742-3.864-1.132-.968-2.518-1.452-4.155-1.452-1.549 0-2.852.469-3.909 1.407-1.058.938-1.706 2.241-1.944 3.909z"/><path d="m183.743 134.256-7.238 24.751h-6.746l-4.512-17.29-4.512 17.29h-6.791l-7.282-24.751h6.344l4.378 18.854 4.735-18.854h6.612l4.646 18.809 4.378-18.809z"/><path d="m191.158 158.314c-1.608-.729-2.882-1.72-3.82-2.971s-1.452-2.637-1.542-4.155h6.299c.119.953.588 1.742 1.408 2.368.818.625 1.838.938 3.06.938 1.191 0 2.122-.237 2.792-.715.67-.476 1.005-1.087 1.005-1.831 0-.805-.41-1.407-1.229-1.81-.819-.402-2.122-.841-3.909-1.318-1.847-.446-3.358-.908-4.535-1.385-1.177-.476-2.189-1.206-3.038-2.188-.849-.983-1.273-2.309-1.273-3.977 0-1.37.395-2.621 1.184-3.753s1.921-2.025 3.396-2.681c1.475-.654 3.209-.982 5.205-.982 2.948 0 5.301.737 7.059 2.211 1.756 1.475 2.725 3.463 2.904 5.965h-5.987c-.089-.983-.499-1.765-1.229-2.346s-1.706-.871-2.926-.871c-1.132 0-2.003.208-2.614.625-.611.418-.916.998-.916 1.742 0 .835.417 1.468 1.251 1.899.833.432 2.129.871 3.887 1.317 1.787.447 3.262.909 4.423 1.386s2.167 1.214 3.015 2.211c.85.998 1.289 2.316 1.318 3.954 0 1.43-.395 2.71-1.184 3.842-.789 1.133-1.922 2.019-3.396 2.658-1.474.641-3.194.961-5.16.961-2.023.001-3.84-.364-5.448-1.094z"/></g><g fill="#ffc107"><path d="m238.835 157.886-7.069-4.423-7.069 4.423c-.257.163-.588.15-.835-.029s-.36-.49-.285-.785l2.022-8.09-6.316-5.355c-.233-.196-.325-.514-.231-.803.094-.29.355-.494.659-.515l8.243-.576 3.118-7.734c.229-.565 1.157-.565 1.386 0l3.118 7.734 8.243.576c.304.021.565.225.659.515s.003.608-.231.803l-6.316 5.355 2.022 8.09c.074.295-.039.606-.285.785-.25.183-.58.187-.833.029z"/><path d="m270.835 157.886-7.069-4.423-7.069 4.423c-.257.163-.588.15-.835-.029s-.36-.49-.285-.785l2.022-8.09-6.316-5.355c-.233-.196-.325-.514-.231-.803.094-.29.355-.494.659-.515l8.243-.576 3.118-7.734c.229-.565 1.157-.565 1.386 0l3.118 7.734 8.243.576c.303.021.565.225.659.515s.003.608-.231.803l-6.316 5.355 2.022 8.09c.074.295-.039.606-.285.785-.25.183-.58.187-.833.029z"/><path d="m302.835 157.886-7.069-4.423-7.069 4.423c-.257.163-.588.15-.835-.029s-.36-.49-.285-.785l2.022-8.09-6.316-5.355c-.233-.196-.325-.514-.231-.803.094-.29.355-.494.659-.515l8.243-.576 3.118-7.734c.229-.565 1.157-.565 1.386 0l3.118 7.734 8.243.576c.303.021.565.225.659.515s.003.608-.231.803l-6.316 5.355 2.022 8.09c.074.295-.039.606-.285.785-.25.183-.58.187-.833.029z"/><path d="m334.835 157.886-7.069-4.423-7.069 4.423c-.257.163-.588.15-.835-.029s-.36-.49-.285-.785l2.022-8.09-6.316-5.355c-.233-.196-.325-.514-.231-.803.094-.29.355-.494.659-.515l8.243-.576 3.118-7.734c.229-.565 1.157-.565 1.386 0l3.118 7.734 8.243.576c.303.021.565.225.659.515s.003.608-.231.803l-6.316 5.355 2.022 8.09c.074.295-.039.606-.285.785-.25.183-.58.187-.833.029z"/><path d="m366.835 157.886-7.069-4.423-7.069 4.423c-.257.163-.588.15-.835-.029s-.36-.49-.285-.785l2.022-8.09-6.316-5.355c-.233-.196-.325-.514-.231-.803.094-.29.355-.494.659-.515l8.243-.576 3.118-7.734c.229-.565 1.157-.565 1.386 0l3.118 7.734 8.243.576c.303.021.565.225.659.515s.003.608-.231.803l-6.316 5.355 2.022 8.09c.074.295-.039.606-.285.785-.25.183-.58.187-.833.029z"/></g><path d="m212.94 55.709c-3.417 0-5.878 1.118-8.374 2.256v25.78c2.394.234 3.759.234 6.032.234 8.2 0 9.321-3.753 9.321-8.986v-12.318c0-3.861-1.282-6.966-6.979-6.966m-54.441-1.408c-5.688 0-6.984 3.118-6.984 6.979v2.167h13.964v-2.167c0-3.861-1.298-6.979-6.98-6.979m-105.462 26.839c0 3.052 1.442 4.638 4.628 4.638 3.419 0 5.44-1.112 7.935-2.256v-6.112h-7.473c-3.538 0-5.09.655-5.09 3.73m212.864-25.431c-5.697 0-7.67 3.105-7.67 6.966v14.11c0 3.875 1.973 6.986 7.67 6.986 5.68 0 7.67-3.112 7.67-6.986v-14.11c0-3.861-1.99-6.966-7.67-6.966m-240.786 41.245h-16.744v-40.479h-8.371v-13.952h8.371v-8.374c0-11.38 4.725-18.149 18.146-18.149h11.176v13.952h-6.983c-5.226 0-5.573 1.95-5.573 5.588l-.021 6.983h12.658l-1.482 13.952h-11.177zm57.237.105h-13.957l-.602-3.526c-6.376 3.526-12.064 4.098-15.814 4.098-10.239 0-15.687-6.828-15.687-16.274 0-11.14 6.358-15.117 17.731-15.117h11.576v-2.408c0-5.69-.653-7.358-9.41-7.358h-14.321l1.401-13.952h15.651c19.218 0 23.431 6.065 23.431 21.422v33.115zm47.463-39.561c-8.686-1.487-11.179-1.816-15.358-1.816-7.507 0-9.775 1.658-9.775 8.019v12.045c0 6.368 2.268 8.025 9.775 8.025 4.179 0 6.672-.329 15.358-1.822v13.604c-7.609 1.707-12.564 2.154-16.753 2.154-17.982 0-25.125-9.443-25.125-23.086v-9.772c0-13.653 7.144-23.112 25.125-23.112 4.189 0 9.144.452 16.753 2.159zm52.408 17.123h-30.708v1.125c0 6.368 2.269 8.025 9.773 8.025 6.749 0 10.865-.329 19.534-1.822v13.604c-8.359 1.707-12.714 2.154-20.922 2.154-17.981 0-25.132-9.443-25.132-23.086v-11.173c0-11.933 5.309-21.711 23.731-21.711 18.427 0 23.724 9.663 23.724 21.711zm54.441.257c0 13.186-3.773 22.803-26.632 22.803-8.249 0-13.097-.727-22.208-2.128v-75.364l16.741-2.788v26.36c3.618-1.344 8.302-2.025 12.564-2.025 16.748 0 19.534 7.499 19.534 19.544v13.598zm53.668.289c0 11.374-4.703 22.405-24.375 22.405-19.685 0-24.474-11.032-24.474-22.405v-10.982c0-11.377 4.789-22.41 24.474-22.41 19.672 0 24.375 11.033 24.375 22.41zm53.625 0c0 11.374-4.707 22.405-24.372 22.405-19.685 0-24.477-11.032-24.477-22.405v-10.982c0-11.377 4.792-22.41 24.477-22.41 19.665 0 24.372 11.033 24.372 22.41zm55.043 21.787h-18.152l-15.347-25.582v25.582h-16.745v-76.765l16.745-2.788v49.419l15.347-24.296h18.152l-16.758 26.513zm-79.474-41.245c-5.687 0-7.66 3.105-7.66 6.966v14.11c0 3.875 1.973 6.986 7.66 6.986 5.68 0 7.69-3.112 7.69-6.986v-14.11c0-3.861-2.01-6.966-7.69-6.966" fill="#4666a9"/></svg>