<svg enable-background="new 0 0 250 250" viewBox="0 0 250 250" xmlns="http://www.w3.org/2000/svg"><g fill="#00549f"><path d="m249.2 160.7c-11.2-12.4-29.7-15.1-44-6.3l-26.7 16.6c-4.6-14-17.6-23.8-32.6-24l-27.2-.6c-15.4-9-35.1-5.5-46.5 8.5-2.9 3.6-5.3 7-7.2 10.1h-7v-3.7c0-2.7-2.2-4.9-4.9-4.9h-48.2c-2.7 0-4.9 2.2-4.9 4.9v57.8c0 2.7 2.2 4.9 4.9 4.9h48.4c2.7 0 4.9-2.2 4.9-4.9v-6.3l67.2 14.7c4.6 1 9.2 1.5 13.8 1.5 11.6 0 23.1-3.2 32.9-9.3.4-.2 41.7-28.3 76.4-51.8 1.2-.8 1.9-2.1 2.1-3.5 0-1.3-.4-2.7-1.4-3.7zm-200.8 53.5h-38.6v-48h38.6zm118.3-2.7c-11.4 7.2-25.7 9.6-39.3 6.5l-69.3-15.2v-28h9.9c1.8 0 3.5-1 4.4-2.7 1.6-3.2 4.1-7 7.5-11.1 8.5-10.5 23.5-12.9 34.8-5.6.8.5 1.6.8 2.5.8l28.5.6c10.8.1 20.1 7.2 23.4 17.1h-59.1c-2.7 0-4.9 2.2-4.9 4.9s2.2 4.9 4.9 4.9h65.3c.9 0 1.8-.3 2.6-.7l32.5-20.2c8.6-5.3 19.3-4.8 27.3.8-26.6 17.8-69.3 46.8-71 47.9z"/><path d="m33.4 191.1c-2.7 0-4.9 2.2-4.9 4.9v3.6c0 2.7 2.2 4.9 4.9 4.9s4.9-2.2 4.9-4.9v-3.6c0-2.7-2.2-4.9-4.9-4.9z"/><path d="m181 147.6c34.9 0 63.4-28.4 63.4-63.4s-28.5-63.3-63.4-63.3-63.4 28.4-63.4 63.4 28.4 63.3 63.4 63.3zm0-116.9c29.5 0 53.6 24 53.6 53.6s-24 53.6-53.6 53.6c-29.5 0-53.6-24-53.6-53.6s24-53.6 53.6-53.6z"/><path d="m162.7 90.1h7c.6 5.1.2 6.9-3.9 12.4l-4.3 5.4c-1.2 1.5-1.4 3.5-.6 5.2s2.5 2.8 4.4 2.8l33.8.3c2.7 0 4.9-2.2 4.9-4.8 0-2.7-2.1-4.9-4.8-4.9l-24-.2c3.8-5.6 4.9-9.6 4.3-16.1h6.9c2.7 0 4.9-2.2 4.9-4.9s-2.2-4.9-4.9-4.9h-9.3c-1.6-2.5-4.2-7.2-4.1-11.1 0-2.5 1.1-4.3 3.3-5.5 3.5-2 9.1-2 12.3-.1 2.5 1.5 4.4 3.7 5 5.5.7 2.6 3.4 4.1 6 3.4s4.1-3.4 3.4-6c-1.2-4.3-4.6-8.4-9.3-11.2-6.2-3.8-15.5-3.8-22.2-.1-5.3 3-8.3 8-8.3 14 0 4 1.3 7.9 2.8 11.1h-3.3c-2.7 0-4.9 2.2-4.9 4.9 0 2.6 2.2 4.8 4.9 4.8z"/></g></svg>