<svg enable-background="new 0 0 399 161" viewBox="0 0 399 161" xmlns="http://www.w3.org/2000/svg"><path d="m170.748 69.119c0 18.896-14.783 32.821-32.924 32.821s-32.924-13.924-32.924-32.821c0-19.03 14.783-32.821 32.924-32.821s32.924 13.792 32.924 32.821zm-14.412 0c0-11.808-8.568-19.888-18.512-19.888s-18.512 8.079-18.512 19.888c0 11.69 8.568 19.888 18.512 19.888s18.512-8.213 18.512-19.888z" fill="#ea4335"/><path d="m241.776 69.119c0 18.896-14.783 32.821-32.924 32.821s-32.924-13.924-32.924-32.821c0-19.015 14.783-32.821 32.924-32.821s32.924 13.792 32.924 32.821zm-14.412 0c0-11.808-8.568-19.888-18.512-19.888s-18.512 8.079-18.512 19.888c0 11.69 8.568 19.888 18.512 19.888s18.512-8.213 18.512-19.888z" fill="#fbbc05"/><path d="m309.845 38.281v58.924c0 24.238-14.294 34.138-31.193 34.138-15.907 0-25.481-10.639-29.092-19.34l12.548-5.224c2.234 5.342 7.71 11.646 16.529 11.646 10.817 0 17.52-6.674 17.52-19.237v-4.72h-.503c-3.226 3.981-9.441 7.458-17.283 7.458-16.41 0-31.445-14.294-31.445-32.688 0-18.526 15.034-32.939 31.445-32.939 7.828 0 14.043 3.477 17.283 7.34h.503v-5.342h13.688zm-12.667 30.957c0-11.557-7.71-20.006-17.52-20.006-9.944 0-18.275 8.449-18.275 20.006 0 11.438 8.331 19.769 18.275 19.769 9.811 0 17.52-8.331 17.52-19.769z" fill="#4285f4"/><path d="m332.411 3.744v96.184h-14.058v-96.184z" fill="#34a853"/><path d="m387.192 79.921 11.187 7.458c-3.611 5.342-12.312 14.546-27.346 14.546-18.645 0-32.569-14.413-32.569-32.821 0-19.518 14.043-32.821 30.956-32.821 17.032 0 25.363 13.555 28.086 20.879l1.494 3.73-43.875 18.171c3.359 6.585 8.583 9.944 15.907 9.944 7.34 0 12.431-3.611 16.16-9.086zm-34.434-11.808 29.329-12.178c-1.613-4.099-6.467-6.955-12.178-6.955-7.326 0-17.521 6.466-17.151 19.133z" fill="#ea4335"/><path d="m51.688 60.581v-13.924h46.923c.459 2.427.695 5.298.695 8.405 0 10.447-2.856 23.365-12.06 32.569-8.952 9.322-20.391 14.294-35.544 14.294-28.085 0-51.702-22.877-51.702-50.962s23.617-50.963 51.702-50.963c15.538 0 26.606 6.097 34.923 14.043l-9.826 9.826c-5.963-5.593-14.043-9.944-25.111-9.944-20.509 0-36.55 16.529-36.55 37.038s16.04 37.038 36.55 37.038c13.303 0 20.879-5.342 25.733-10.195 3.936-3.936 6.526-9.559 7.547-17.239z" fill="#4285f4"/><g fill="#757476"><path d="m42.567 159.007-6.88-12.152h-2.949v12.152h-6.255v-31.184h11.705c2.413 0 4.468.424 6.166 1.273s2.971 1.995 3.82 3.439c.849 1.445 1.273 3.061 1.273 4.848 0 2.055-.596 3.909-1.787 5.562-1.192 1.653-2.964 2.793-5.316 3.418l7.46 12.644zm-9.828-16.843h5.227c1.698 0 2.963-.409 3.797-1.229.833-.819 1.251-1.958 1.251-3.418 0-1.43-.417-2.539-1.251-3.328s-2.1-1.185-3.797-1.185h-5.227z"/><path d="m77.951 148.508h-18.094c.148 1.787.774 3.188 1.876 4.199 1.102 1.014 2.457 1.52 4.065 1.52 2.323 0 3.976-.998 4.959-2.993h6.746c-.715 2.383-2.085 4.341-4.11 5.875s-4.512 2.301-7.461 2.301c-2.383 0-4.52-.528-6.411-1.586-1.892-1.058-3.366-2.554-4.423-4.49-1.058-1.936-1.586-4.17-1.586-6.701 0-2.562.521-4.81 1.564-6.746 1.042-1.936 2.502-3.425 4.378-4.468 1.876-1.042 4.036-1.563 6.478-1.563 2.353 0 4.46.507 6.322 1.519 1.861 1.013 3.306 2.45 4.333 4.312 1.028 1.861 1.542 3.998 1.542 6.411 0 .891-.06 1.695-.178 2.41zm-6.3-4.199c-.03-1.608-.611-2.896-1.742-3.864-1.132-.968-2.518-1.452-4.155-1.452-1.549 0-2.852.469-3.909 1.407-1.058.938-1.706 2.241-1.944 3.909z"/><path d="m93.006 153.243 6.255-18.987h6.657l-9.159 24.751h-7.595l-9.114-24.751h6.701z"/><path d="m109.87 130.258c-.73-.699-1.094-1.57-1.094-2.613s.364-1.914 1.094-2.614c.729-.699 1.646-1.05 2.748-1.05 1.101 0 2.017.351 2.748 1.05.729.7 1.094 1.571 1.094 2.614s-.365 1.914-1.094 2.613c-.73.7-1.646 1.05-2.748 1.05s-2.018-.35-2.748-1.05zm5.831 3.998v24.751h-6.255v-24.751z"/><path d="m144.696 148.508h-18.094c.148 1.787.774 3.188 1.876 4.199 1.102 1.014 2.457 1.52 4.065 1.52 2.323 0 3.976-.998 4.959-2.993h6.746c-.715 2.383-2.085 4.341-4.11 5.875s-4.512 2.301-7.461 2.301c-2.383 0-4.52-.528-6.411-1.586-1.892-1.058-3.366-2.554-4.423-4.49-1.058-1.936-1.586-4.17-1.586-6.701 0-2.562.521-4.81 1.564-6.746 1.042-1.936 2.502-3.425 4.378-4.468 1.876-1.042 4.036-1.563 6.478-1.563 2.353 0 4.46.507 6.322 1.519 1.861 1.013 3.306 2.45 4.333 4.312 1.028 1.861 1.542 3.998 1.542 6.411 0 .891-.06 1.695-.178 2.41zm-6.3-4.199c-.03-1.608-.611-2.896-1.742-3.864-1.132-.968-2.518-1.452-4.155-1.452-1.549 0-2.852.469-3.909 1.407-1.058.938-1.706 2.241-1.944 3.909z"/><path d="m183.743 134.256-7.238 24.751h-6.746l-4.512-17.29-4.512 17.29h-6.791l-7.282-24.751h6.344l4.378 18.854 4.735-18.854h6.612l4.646 18.809 4.378-18.809z"/><path d="m191.158 158.314c-1.608-.729-2.882-1.72-3.82-2.971s-1.452-2.637-1.542-4.155h6.299c.119.953.588 1.742 1.408 2.368.818.625 1.838.938 3.06.938 1.191 0 2.122-.237 2.792-.715.67-.476 1.005-1.087 1.005-1.831 0-.805-.41-1.407-1.229-1.81-.819-.402-2.122-.841-3.909-1.318-1.847-.446-3.358-.908-4.535-1.385-1.177-.476-2.189-1.206-3.038-2.188-.849-.983-1.273-2.309-1.273-3.977 0-1.37.395-2.621 1.184-3.753s1.921-2.025 3.396-2.681c1.475-.654 3.209-.982 5.205-.982 2.948 0 5.301.737 7.059 2.211 1.756 1.475 2.725 3.463 2.904 5.965h-5.987c-.089-.983-.499-1.765-1.229-2.346s-1.706-.871-2.926-.871c-1.132 0-2.003.208-2.614.625-.611.418-.916.998-.916 1.742 0 .835.417 1.468 1.251 1.899.833.432 2.129.871 3.887 1.317 1.787.447 3.262.909 4.423 1.386s2.167 1.214 3.015 2.211c.85.998 1.289 2.316 1.318 3.954 0 1.43-.395 2.71-1.184 3.842-.789 1.133-1.922 2.019-3.396 2.658-1.474.641-3.194.961-5.16.961-2.023.001-3.84-.364-5.448-1.094z"/></g><g fill="#ffc107"><path d="m238.835 157.886-7.069-4.423-7.069 4.423c-.257.163-.588.15-.835-.029s-.36-.49-.285-.785l2.022-8.09-6.316-5.355c-.233-.196-.325-.514-.231-.803.094-.29.355-.494.659-.515l8.243-.576 3.118-7.734c.229-.565 1.157-.565 1.386 0l3.118 7.734 8.243.576c.304.021.565.225.659.515s.003.608-.231.803l-6.316 5.355 2.022 8.09c.074.295-.039.606-.285.785-.25.183-.58.187-.833.029z"/><path d="m270.835 157.886-7.069-4.423-7.069 4.423c-.257.163-.588.15-.835-.029s-.36-.49-.285-.785l2.022-8.09-6.316-5.355c-.233-.196-.325-.514-.231-.803.094-.29.355-.494.659-.515l8.243-.576 3.118-7.734c.229-.565 1.157-.565 1.386 0l3.118 7.734 8.243.576c.303.021.565.225.659.515s.003.608-.231.803l-6.316 5.355 2.022 8.09c.074.295-.039.606-.285.785-.25.183-.58.187-.833.029z"/><path d="m302.835 157.886-7.069-4.423-7.069 4.423c-.257.163-.588.15-.835-.029s-.36-.49-.285-.785l2.022-8.09-6.316-5.355c-.233-.196-.325-.514-.231-.803.094-.29.355-.494.659-.515l8.243-.576 3.118-7.734c.229-.565 1.157-.565 1.386 0l3.118 7.734 8.243.576c.303.021.565.225.659.515s.003.608-.231.803l-6.316 5.355 2.022 8.09c.074.295-.039.606-.285.785-.25.183-.58.187-.833.029z"/><path d="m334.835 157.886-7.069-4.423-7.069 4.423c-.257.163-.588.15-.835-.029s-.36-.49-.285-.785l2.022-8.09-6.316-5.355c-.233-.196-.325-.514-.231-.803.094-.29.355-.494.659-.515l8.243-.576 3.118-7.734c.229-.565 1.157-.565 1.386 0l3.118 7.734 8.243.576c.303.021.565.225.659.515s.003.608-.231.803l-6.316 5.355 2.022 8.09c.074.295-.039.606-.285.785-.25.183-.58.187-.833.029z"/><path d="m366.835 157.886-7.069-4.423-7.069 4.423c-.257.163-.588.15-.835-.029s-.36-.49-.285-.785l2.022-8.09-6.316-5.355c-.233-.196-.325-.514-.231-.803.094-.29.355-.494.659-.515l8.243-.576 3.118-7.734c.229-.565 1.157-.565 1.386 0l3.118 7.734 8.243.576c.303.021.565.225.659.515s.003.608-.231.803l-6.316 5.355 2.022 8.09c.074.295-.039.606-.285.785-.25.183-.58.187-.833.029z"/></g></svg>