<svg enable-background="new 0 0 512 512" height="512" viewBox="0 0 512 512" width="512" xmlns="http://www.w3.org/2000/svg"><g fill="#00549f" xmlns="http://www.w3.org/2000/svg"><path d="m456 496.001c-22.056 0-40-17.944-40-40v-280c0-22.056 17.944-40 40-40s40 17.944 40 40v280c0 22.056-17.944 40-40 40zm0-340c-11.028 0-20 8.972-20 20v280c0 11.028 8.972 20 20 20s20-8.972 20-20v-280c0-11.028-8.972-20-20-20z"/><path d="m396 496.001c-22.056 0-40-17.944-40-40v-280c0-22.056 17.944-40 40-40s40 17.944 40 40v280c0 22.056-17.944 40-40 40zm0-340c-11.028 0-20 8.972-20 20v280c0 11.028 8.972 20 20 20s20-8.972 20-20v-280c0-11.028-8.972-20-20-20z"/><path d="m336 496.001c-22.056 0-40-17.944-40-40v-280c0-22.056 17.944-40 40-40s40 17.944 40 40v280c0 22.056-17.944 40-40 40zm0-340c-11.028 0-20 8.972-20 20v280c0 11.028 8.972 20 20 20s20-8.972 20-20v-280c0-11.028-8.972-20-20-20z"/><path d="m276 496.001c-22.056 0-40-17.944-40-40v-280c0-22.056 17.944-40 40-40s40 17.944 40 40v280c0 22.056-17.944 40-40 40zm0-340c-11.028 0-20 8.972-20 20v280c0 11.028 8.972 20 20 20s20-8.972 20-20v-280c0-11.028-8.972-20-20-20z"/><path d="m216 496.001c-22.056 0-40-17.944-40-40v-280c0-22.056 17.944-40 40-40s40 17.944 40 40v280c0 22.056-17.944 40-40 40zm0-340c-11.028 0-20 8.972-20 20v280c0 11.028 8.972 20 20 20s20-8.972 20-20v-280c0-11.028-8.972-20-20-20z"/><path d="m156 496.001c-22.056 0-40-17.944-40-40v-280c0-22.056 17.944-40 40-40s40 17.944 40 40v280c0 22.056-17.944 40-40 40zm0-340c-11.028 0-20 8.972-20 20v280c0 11.028 8.972 20 20 20s20-8.972 20-20v-280c0-11.028-8.972-20-20-20z"/><path d="m126 456.001h-50c-5.523 0-10-4.478-10-10v-90c0-5.522 4.477-10 10-10h50c5.523 0 10 4.478 10 10v90c0 5.522-4.477 10-10 10zm-40-20h30v-70h-30z"/><path d="m76 436.001h-50c-5.523 0-10-4.478-10-10v-40c0-5.522 4.477-10 10-10h50c5.523 0 10 4.478 10 10v40c0 5.522-4.477 10-10 10zm-40-20h30v-20h-30z"/><path d="m126 216.001h-50c-5.523 0-10-4.478-10-10s4.477-10 10-10h50c5.523 0 10 4.478 10 10s-4.477 10-10 10z"/><path d="m126 256.001h-50c-5.523 0-10-4.478-10-10s4.477-10 10-10h50c5.523 0 10 4.478 10 10s-4.477 10-10 10z"/><path d="m256.009 116.003c-3.452 0-6.81-1.789-8.664-4.991-6.877-11.879-14.283-36.216 1.583-52.082 8.872-8.871-1.493-27.761-1.601-27.949-2.726-4.787-1.075-10.893 3.702-13.636s10.864-1.123 13.624 3.646c6.877 11.879 14.282 36.216-1.583 52.081-8.837 8.837 1.475 27.731 1.583 27.918 2.767 4.78 1.136 10.897-3.644 13.665-1.576.913-3.3 1.348-5 1.348z"/><path d="m302.528 116.003c-3.452 0-6.81-1.789-8.664-4.991-6.877-11.879-14.283-36.216 1.583-52.082 8.838-8.837-1.475-27.731-1.583-27.918-2.768-4.78-1.136-10.897 3.644-13.665 4.783-2.768 10.899-1.136 13.665 3.644 6.877 11.88 14.283 36.217-1.583 52.082-8.838 8.837 1.475 27.731 1.583 27.918 2.768 4.78 1.136 10.897-3.644 13.665-1.577.912-3.3 1.347-5.001 1.347z"/><path d="m349.047 116.003c-3.452 0-6.81-1.789-8.664-4.991-6.877-11.879-14.283-36.216 1.583-52.082 8.838-8.837-1.475-27.731-1.583-27.918-2.768-4.78-1.136-10.897 3.644-13.665 4.782-2.768 10.898-1.136 13.665 3.644 6.877 11.88 14.283 36.217-1.583 52.082-8.838 8.837 1.475 27.731 1.583 27.918 2.768 4.78 1.136 10.897-3.644 13.665-1.577.912-3.301 1.347-5.001 1.347z"/><path d="m395.565 116.003c-3.452 0-6.81-1.789-8.664-4.991-6.877-11.879-14.283-36.216 1.583-52.082 8.838-8.837-1.475-27.731-1.583-27.918-2.768-4.78-1.136-10.897 3.644-13.665 4.782-2.768 10.898-1.136 13.665 3.644 6.877 11.88 14.283 36.217-1.583 52.082-8.838 8.837 1.475 27.731 1.583 27.918 2.768 4.78 1.136 10.897-3.644 13.665-1.577.912-3.3 1.347-5.001 1.347z"/></g></svg>