<svg enable-background="new 0 0 250 250" viewBox="0 0 250 250" xmlns="http://www.w3.org/2000/svg"><g fill="#00549f"><path d="m124.9 2.3c-50.5 0-91.5 41.1-91.5 91.5 0 64 83.8 148.6 87.4 152.1 1.1 1.1 2.6 1.7 4.2 1.7s3-.6 4.2-1.7c3.6-3.6 87.4-88.1 87.4-152.1-.3-50.4-41.3-91.5-91.7-91.5zm47.6 172.1c-16.9 25.1-36.2 46.9-46.1 57.6l-1.5 1.6-1.5-1.6c-10-10.8-29.3-32.5-46.1-57.5-21.5-31.9-32.3-59.1-32.3-80.6 0-44.1 35.9-79.9 79.9-79.9s79.9 35.9 79.9 79.9c.1 21.5-10.8 48.5-32.3 80.5z"/><path d="m124.9 49c-24.6 0-44.7 20-44.7 44.7s20 44.7 44.7 44.7c24.6 0 44.7-20 44.7-44.7s-20-44.7-44.7-44.7zm0 77.9c-18.3 0-33.2-14.9-33.2-33.2s14.9-33.2 33.2-33.2c18.2 0 33.1 14.9 33.1 33.2s-14.8 33.2-33.1 33.2z"/></g></svg>