<svg enable-background="new 0 0 250 250" viewBox="0 0 250 250" xmlns="http://www.w3.org/2000/svg"><g fill="#00549f"><path d="m218.1 158.4c20.2-14.8 31.8-36.4 31.8-59.4 0-43.2-40.9-78.3-91.2-78.3-40.5 0-75.6 22.4-87.3 55.6-.5 1.4-.5 2.9.2 4.3s1.8 2.5 3.3 3c1.4.5 2.9.5 4.3-.2s2.4-1.8 3-3.3c10-28.3 41.6-48.1 76.7-48.1 44.1 0 79.9 30 79.9 66.9 0 20.7-11.3 39.9-30.9 52.7-2.5 1.6-3.4 4.8-2 7.2l4.4 8.7-13.2-7.5c-1.3-.8-3.2-1-5-.4h-.1c-7.1 2.8-14.6 4.6-22.6 5.4-3.1.3-5.3 3.1-5 6.3.1 1.6.9 3 2.1 4 1.1.9 2.7 1.3 4.3 1 8.2-1 16-2.8 22.9-5.3l27.1 15.6c1 .6 2.1.7 2.8.7 1.3 0 2.7-.5 3.8-1.5l.1-.1c1.8-1.8 2.3-4.4 1.2-6.7z"/><path d="m78.5 93.3c-43.2 0-78.3 28.2-78.3 62.8 0 18.4 10.5 36.3 28 48l-6.9 17.2c-.9 2.2-.4 4.8 1.3 6.3 1.1 1.1 2.5 1.6 4 1.6.8 0 1.6-.2 2.4-.5l25.5-12.7c7.8 2 15.6 3 23.8 3 43.2 0 78.3-28.2 78.3-62.8s-35-62.9-78.1-62.9zm-26.1 113.1-.5-1.9-14.4 7.2 3.1-7.7c1.1-2.6.1-5.5-2.4-7.1-16.9-9.9-26.6-24.7-26.6-40.8 0-28.3 30-51.3 66.9-51.3s66.9 23 66.9 51.3-30 51.3-66.9 51.3c-7.5 0-15.2-1.1-22.8-3.2h-.2c-1.4-.3-2.8.1-3.6.3z"/></g></svg>