<svg enable-background="new 0 0 222.9 41.8" viewBox="0 0 222.9 41.8" xmlns="http://www.w3.org/2000/svg"><g fill="#9bb82c"><path d="m0 0h41.8v41.8h-41.8z"/><path d="m45.3 0h41.8v41.8h-41.8z"/><path d="m90.5 0h41.8v41.8h-41.8z"/><path d="m135.9 0h41.8v41.8h-41.8z"/><path d="m181.1 0h41.8v41.8h-41.8z"/></g><path d="m34.6 16.7-10.1-.7-3.9-9.6-3.8 9.6-10.2.7 7.8 6.6-2.6 10.1 8.8-5.6 8.8 5.6-2.6-10.1z" fill="#fff"/><path d="m79.9 16.7-10.2-.7-3.9-9.6-3.8 9.6-10.2.7 7.8 6.6-2.5 10.1 8.7-5.6 8.8 5.6-2.6-10.1z" fill="#fff"/><path d="m125.4 16.7-10.2-.7-3.8-9.6-3.8 9.6-10.2.7 7.8 6.6-2.6 10.1 8.8-5.6 8.8 5.6-2.6-10.1z" fill="#fff"/><path d="m171 16.7-10.2-.7-3.8-9.6-3.8 9.6-10.2.7 7.8 6.6-2.6 10.1 8.8-5.6 8.8 5.6-2.6-10.1z" fill="#fff"/><path d="m216 16.7-10.2-.7-3.8-9.6-3.8 9.6-10.2.7 7.8 6.6-2.6 10.1 8.8-5.6 8.8 5.6-2.6-10.1z" fill="#fff"/></svg>