<?xml version="1.0" encoding="UTF-8"?> <svg xmlns="http://www.w3.org/2000/svg" xmlns:xlink="http://www.w3.org/1999/xlink" xmlns:svgjs="http://svgjs.com/svgjs" version="1.1" width="512" height="512" x="0" y="0" viewBox="0 0 682.667 682.667" style="enable-background:new 0 0 512 512" xml:space="preserve" class=""><g><defs stroke-width="18" style="stroke-width: 18;"><clipPath id="a" stroke-width="18" style="stroke-width: 18;"><path d="M0 512h512V0H0Z" fill="#ffffff" data-original="#000000" stroke-width="18" style="stroke-width: 18;" class=""></path></clipPath></defs><g clip-path="url(#a)" transform="matrix(1.33333 0 0 -1.33333 0 682.667)" stroke-width="18" style="stroke-width: 18;"><path d="M0 0h115.83c48.675 0 88.134-39.339 88.134-87.867v-9.775c0-16.552-13.459-29.97-30.062-29.97h-421.877c-16.602 0-30.061 13.418-30.061 29.97v9.775C-278.036-39.339-238.577 0-189.902 0h114.067" style="stroke-width: 18; stroke-linecap: butt; stroke-linejoin: miter; stroke-miterlimit: 10; stroke-dasharray: none; stroke-opacity: 1;" transform="translate(293.036 142.612)" fill="none" stroke="#ffffff" stroke-width="18" stroke-linecap="butt" stroke-linejoin="miter" stroke-miterlimit="10" stroke-dasharray="none" stroke-opacity="" data-original="#000000"></path><path d="M0 0v-33.728c0-21.539-17.514-39-39.119-39-21.604 0-39.118 17.461-39.118 39V0" style="stroke-width: 18; stroke-linecap: butt; stroke-linejoin: miter; stroke-miterlimit: 10; stroke-dasharray: none; stroke-opacity: 1;" transform="translate(294.237 185.955)" fill="none" stroke="#ffffff" stroke-width="18" stroke-linecap="butt" stroke-linejoin="miter" stroke-miterlimit="10" stroke-dasharray="none" stroke-opacity="" data-original="#000000"></path><path d="M0 0v127.612" style="stroke-width: 18; stroke-linecap: round; stroke-linejoin: miter; stroke-miterlimit: 10; stroke-dasharray: none; stroke-opacity: 1;" transform="translate(104.897 15)" fill="none" stroke="#ffffff" stroke-width="18" stroke-linecap="round" stroke-linejoin="miter" stroke-miterlimit="10" stroke-dasharray="none" stroke-opacity="" data-original="#000000"></path><path d="M0 0v127.612" style="stroke-width: 18; stroke-linecap: round; stroke-linejoin: miter; stroke-miterlimit: 10; stroke-dasharray: none; stroke-opacity: 1;" transform="translate(407.103 15)" fill="none" stroke="#ffffff" stroke-width="18" stroke-linecap="round" stroke-linejoin="miter" stroke-miterlimit="10" stroke-dasharray="none" stroke-opacity="" data-original="#000000"></path><path d="M0 0v-83.298c0-54.576 44.377-98.818 99.119-98.818 54.741 0 99.118 44.242 99.118 98.818V0" style="stroke-width: 18; stroke-linecap: round; stroke-linejoin: miter; stroke-miterlimit: 10; stroke-dasharray: none; stroke-opacity: 1;" transform="translate(156 360.095)" fill="none" stroke="#ffffff" stroke-width="18" stroke-linecap="round" stroke-linejoin="miter" stroke-miterlimit="10" stroke-dasharray="none" stroke-opacity="" data-original="#000000"></path><path d="M0 0v-74.046a3.617 3.617 0 0 1 3.623-3.612h175.711c2 0 3.622 1.617 3.622 3.612V0" style="stroke-width: 18; stroke-linecap: butt; stroke-linejoin: miter; stroke-miterlimit: 10; stroke-dasharray: none; stroke-opacity: 1;" transform="translate(164.549 142.612)" fill="none" stroke="#ffffff" stroke-width="18" stroke-linecap="butt" stroke-linejoin="miter" stroke-miterlimit="10" stroke-dasharray="none" stroke-opacity="" data-original="#000000"></path><path d="M0 0h-218.237v28.118c0 60.081 48.854 108.787 109.118 108.787C-48.854 136.905 0 88.199 0 28.118Z" style="stroke-width: 18; stroke-linecap: butt; stroke-linejoin: miter; stroke-miterlimit: 10; stroke-dasharray: none; stroke-opacity: 1;" transform="translate(364.237 360.095)" fill="none" stroke="#ffffff" stroke-width="18" stroke-linecap="butt" stroke-linejoin="miter" stroke-miterlimit="10" stroke-dasharray="none" stroke-opacity="" data-original="#000000"></path><path d="M0 0h278.237" style="stroke-width: 18; stroke-linecap: round; stroke-linejoin: miter; stroke-miterlimit: 10; stroke-dasharray: none; stroke-opacity: 1;" transform="translate(116 360.095)" fill="none" stroke="#ffffff" stroke-width="18" stroke-linecap="round" stroke-linejoin="miter" stroke-miterlimit="10" stroke-dasharray="none" stroke-opacity="" data-original="#000000"></path><path d="M0 0v-60.82" style="stroke-width: 18; stroke-linecap: round; stroke-linejoin: miter; stroke-miterlimit: 10; stroke-dasharray: none; stroke-opacity: 1;" transform="translate(230.119 494.087)" fill="none" stroke="#ffffff" stroke-width="18" stroke-linecap="round" stroke-linejoin="miter" stroke-miterlimit="10" stroke-dasharray="none" stroke-opacity="" data-original="#000000"></path><path d="M0 0v-60.82" style="stroke-width: 18; stroke-linecap: round; stroke-linejoin: miter; stroke-miterlimit: 10; stroke-dasharray: none; stroke-opacity: 1;" transform="translate(280.119 494.087)" fill="none" stroke="#ffffff" stroke-width="18" stroke-linecap="round" stroke-linejoin="miter" stroke-miterlimit="10" stroke-dasharray="none" stroke-opacity="" data-original="#000000"></path></g></g></svg> 