<?xml version="1.0" encoding="UTF-8"?> <svg xmlns="http://www.w3.org/2000/svg" xmlns:xlink="http://www.w3.org/1999/xlink" xmlns:svgjs="http://svgjs.com/svgjs" version="1.1" width="512" height="512" x="0" y="0" viewBox="0 0 682.667 682.667" style="enable-background:new 0 0 512 512" xml:space="preserve" class=""><g><defs stroke-width="20" style="stroke-width: 20;"><clipPath id="b" stroke-width="20" style="stroke-width: 20;"><path d="M0 512h512V0H0Z" fill="#ffffff" data-original="#000000" stroke-width="20" style="stroke-width: 20;" class=""></path></clipPath></defs><mask id="a" stroke-width="20" style="stroke-width: 20;"><rect width="100%" height="100%" fill="#ffffff" data-original="#ffffff" stroke-width="20" style="stroke-width: 20;" class=""></rect></mask><g mask="url(#a)" stroke-width="20" style="stroke-width: 20;"><g clip-path="url(#b)" transform="matrix(1.33333 0 0 -1.33333 0 682.667)" stroke-width="20" style="stroke-width: 20;"><path d="M0 0c0-19.987-16.203-36.19-36.19-36.19-19.988 0-36.191 16.203-36.191 36.19v262.896c0 19.987 16.203 36.19 36.191 36.19 19.987 0 36.19-16.203 36.19-36.19z" style="stroke-width: 20; stroke-linecap: butt; stroke-linejoin: miter; stroke-miterlimit: 10; stroke-dasharray: none; stroke-opacity: 1;" transform="translate(177.453 51.19)" fill="none" stroke="#ffffff" stroke-width="20" stroke-linecap="butt" stroke-linejoin="miter" stroke-miterlimit="10" stroke-dasharray="none" stroke-opacity="" data-original="#000000"></path><path d="M0 0c0-19.987-16.203-36.19-36.19-36.19-19.988 0-36.191 16.203-36.191 36.19v262.896c0 19.987 16.203 36.19 36.191 36.19 19.987 0 36.19-16.203 36.19-36.19z" style="stroke-width: 20; stroke-linecap: butt; stroke-linejoin: miter; stroke-miterlimit: 10; stroke-dasharray: none; stroke-opacity: 1;" transform="translate(249.833 51.19)" fill="none" stroke="#ffffff" stroke-width="20" stroke-linecap="butt" stroke-linejoin="miter" stroke-miterlimit="10" stroke-dasharray="none" stroke-opacity="" data-original="#000000"></path><path d="M0 0c0-19.987-16.203-36.19-36.19-36.19-19.988 0-36.191 16.203-36.191 36.19v262.896c0 19.987 16.203 36.19 36.191 36.19 19.987 0 36.19-16.203 36.19-36.19z" style="stroke-width: 20; stroke-linecap: butt; stroke-linejoin: miter; stroke-miterlimit: 10; stroke-dasharray: none; stroke-opacity: 1;" transform="translate(322.214 51.19)" fill="none" stroke="#ffffff" stroke-width="20" stroke-linecap="butt" stroke-linejoin="miter" stroke-miterlimit="10" stroke-dasharray="none" stroke-opacity="" data-original="#000000"></path><path d="M0 0c0-19.987-16.203-36.19-36.19-36.19-19.988 0-36.191 16.203-36.191 36.19v262.896c0 19.987 16.203 36.19 36.191 36.19 19.987 0 36.19-16.203 36.19-36.19z" style="stroke-width: 20; stroke-linecap: butt; stroke-linejoin: miter; stroke-miterlimit: 10; stroke-dasharray: none; stroke-opacity: 1;" transform="translate(394.595 51.19)" fill="none" stroke="#ffffff" stroke-width="20" stroke-linecap="butt" stroke-linejoin="miter" stroke-miterlimit="10" stroke-dasharray="none" stroke-opacity="" data-original="#000000"></path><path d="M0 0c0-19.987-16.203-36.19-36.19-36.19-19.988 0-36.191 16.203-36.191 36.19v262.896c0 19.987 16.203 36.19 36.191 36.19 19.987 0 36.19-16.203 36.19-36.19z" style="stroke-width: 20; stroke-linecap: butt; stroke-linejoin: miter; stroke-miterlimit: 10; stroke-dasharray: none; stroke-opacity: 1;" transform="translate(466.976 51.19)" fill="none" stroke="#ffffff" stroke-width="20" stroke-linecap="butt" stroke-linejoin="miter" stroke-miterlimit="10" stroke-dasharray="none" stroke-opacity="" data-original="#000000"></path><path d="M0 0h-60.048v60.048H0" style="stroke-width: 20; stroke-linecap: butt; stroke-linejoin: miter; stroke-miterlimit: 10; stroke-dasharray: none; stroke-opacity: 1;" transform="translate(105.072 227.257)" fill="none" stroke="#ffffff" stroke-width="20" stroke-linecap="butt" stroke-linejoin="miter" stroke-miterlimit="10" stroke-dasharray="none" stroke-opacity="" data-original="#000000"></path><path d="M0 0h-45.024" style="stroke-width: 20; stroke-linecap: butt; stroke-linejoin: miter; stroke-miterlimit: 10; stroke-dasharray: none; stroke-opacity: 1;" transform="translate(45.024 257.281)" fill="none" stroke="#ffffff" stroke-width="20" stroke-linecap="butt" stroke-linejoin="miter" stroke-miterlimit="10" stroke-dasharray="none" stroke-opacity="" data-original="#000000"></path><path d="M0 0h-45.024" style="stroke-width: 20; stroke-linecap: butt; stroke-linejoin: miter; stroke-miterlimit: 10; stroke-dasharray: none; stroke-opacity: 1;" transform="translate(512 287.305)" fill="none" stroke="#ffffff" stroke-width="20" stroke-linecap="butt" stroke-linejoin="miter" stroke-miterlimit="10" stroke-dasharray="none" stroke-opacity="" data-original="#000000"></path><path d="M0 0h-45.024" style="stroke-width: 20; stroke-linecap: butt; stroke-linejoin: miter; stroke-miterlimit: 10; stroke-dasharray: none; stroke-opacity: 1;" transform="translate(512 77.972)" fill="none" stroke="#ffffff" stroke-width="20" stroke-linecap="butt" stroke-linejoin="miter" stroke-miterlimit="10" stroke-dasharray="none" stroke-opacity="" data-original="#000000"></path><path d="M0 0c0 19.446 9.717 19.446 9.717 38.893C9.717 58.341 0 58.341 0 77.79c0 19.448 9.717 19.448 9.717 38.898" style="stroke-width: 20; stroke-linecap: butt; stroke-linejoin: miter; stroke-miterlimit: 10; stroke-dasharray: none; stroke-opacity: 1;" transform="translate(211.122 395.313)" fill="none" stroke="#ffffff" stroke-width="20" stroke-linecap="butt" stroke-linejoin="miter" stroke-miterlimit="10" stroke-dasharray="none" stroke-opacity="" data-original="#000000"></path><path d="M0 0c0 19.446 9.717 19.446 9.717 38.893C9.717 58.341 0 58.341 0 77.79c0 19.448 9.717 19.448 9.717 38.898" style="stroke-width: 20; stroke-linecap: butt; stroke-linejoin: miter; stroke-miterlimit: 10; stroke-dasharray: none; stroke-opacity: 1;" transform="translate(281.166 395.313)" fill="none" stroke="#ffffff" stroke-width="20" stroke-linecap="butt" stroke-linejoin="miter" stroke-miterlimit="10" stroke-dasharray="none" stroke-opacity="" data-original="#000000"></path><path d="M0 0c0 19.446 9.717 19.446 9.717 38.893C9.717 58.341 0 58.341 0 77.79c0 19.448 9.717 19.448 9.717 38.898" style="stroke-width: 20; stroke-linecap: butt; stroke-linejoin: miter; stroke-miterlimit: 10; stroke-dasharray: none; stroke-opacity: 1;" transform="translate(351.209 395.313)" fill="none" stroke="#ffffff" stroke-width="20" stroke-linecap="butt" stroke-linejoin="miter" stroke-miterlimit="10" stroke-dasharray="none" stroke-opacity="" data-original="#000000"></path></g></g></g></svg> 