<?xml version="1.0" encoding="utf-8"?>
<!-- Generator: Adobe Illustrator 24.1.0, SVG Export Plug-In . SVG Version: 6.00 Build 0)  -->
<svg version="1.1" id="Layer_1" xmlns="http://www.w3.org/2000/svg" xmlns:xlink="http://www.w3.org/1999/xlink" x="0px" y="0px"
	 viewBox="0 0 156 156" style="enable-background:new 0 0 156 156;" xml:space="preserve">
<style type="text/css">
	.st0{fill:#FFFFFF;}
</style>
<g>
	<path class="st0" d="M122.4,22.2h-13.7v-6.1c0-2-2.2-2.9-4.1-2.9H93.9C91.4,6,85.1,2.4,77.9,2.4c-7.1-0.3-13.6,4.1-16,10.8H51.4
		c-2,0-4,0.9-4,2.9v6.1H33.7c-8.1,0.1-14.7,6.5-15.1,14.6v103.1c0,7.9,7.2,13.7,15.1,13.7h88.5c7.9,0,15.1-5.8,15.1-13.7V36.8
		C137.1,28.7,130.5,22.3,122.4,22.2z M54.7,20.4h9.9c1.7-0.2,3.1-1.5,3.4-3.2c1.1-4.6,5.1-8,9.9-8.1c4.7,0.1,8.7,3.5,9.7,8.1
		c0.3,1.8,1.8,3.1,3.6,3.2h10.3v14.4H54.7L54.7,20.4z M130.3,139.9c0,4-4,6.5-7.9,6.5H33.8c-4,0-7.9-2.5-7.9-6.5V36.8
		c0.4-4.1,3.8-7.3,7.9-7.4h13.7v9.2c0.2,2,1.9,3.5,4,3.4h53.1c2.1,0.1,3.9-1.4,4.1-3.4v-9.2h13.7c4.1,0.1,7.5,3.3,7.9,7.4V139.9z"/>
	<path class="st0" d="M64.1,82.9c-1.3-1.4-3.6-1.5-5-0.2l-11.5,11l-4.9-5c-1.3-1.4-3.6-1.5-5-0.2c-1.4,1.5-1.4,3.8,0,5.2l7.4,7.6
		c0.6,0.7,1.6,1.1,2.5,1.1s1.9-0.4,2.5-1.1l14-13.3c1.4-1.3,1.5-3.4,0.2-4.8C64.3,83,64.2,82.9,64.1,82.9z"/>
	<path class="st0" d="M115.9,90.6H74.4c-2,0-3.6,1.6-3.6,3.6s1.6,3.6,3.6,3.6h41.4c2,0,3.6-1.6,3.6-3.6S117.9,90.6,115.9,90.6z"/>
	<path class="st0" d="M64.1,54.1c-1.3-1.4-3.6-1.5-5-0.2l-11.5,11l-4.9-5c-1.3-1.4-3.6-1.5-5-0.2c-1.4,1.5-1.4,3.8,0,5.2l7.4,7.6
		c0.6,0.7,1.6,1.1,2.5,1.1s1.9-0.4,2.5-1.1l14-13.3c1.4-1.3,1.5-3.4,0.2-4.8C64.3,54.2,64.2,54.1,64.1,54.1z"/>
	<path class="st0" d="M115.9,61.8H74.4c-2,0-3.6,1.6-3.6,3.6s1.6,3.6,3.6,3.6h41.4c2,0,3.6-1.6,3.6-3.6S117.9,61.8,115.9,61.8z"/>
	<path class="st0" d="M64.1,111.7c-1.3-1.4-3.6-1.5-5-0.2l-11.5,11l-4.9-5c-1.3-1.4-3.6-1.5-5-0.2c-1.4,1.5-1.4,3.8,0,5.2l7.4,7.6
		c0.6,0.7,1.6,1.1,2.5,1.1s1.9-0.4,2.5-1.1l14-13.3c1.4-1.3,1.5-3.4,0.2-4.8C64.3,111.8,64.2,111.7,64.1,111.7z"/>
	<path class="st0" d="M115.9,119.4H74.4c-2,0-3.6,1.6-3.6,3.6s1.6,3.6,3.6,3.6h41.4c2,0,3.6-1.6,3.6-3.6S117.9,119.4,115.9,119.4z"
		/>
</g>
</svg>
