<svg enable-background="new 0 0 480.6 480.6" viewBox="0 0 480.6 480.6" xmlns="http://www.w3.org/2000/svg"><circle cx="240.3" cy="240.3" fill="#9bb82c" r="240.3"/><path d="m317.8 268.8c-8.2-8.1-18.5-8.1-26.6 0-6.2 6.2-12.5 12.4-18.6 18.6-1.7 1.7-3.1 2.1-5.1.9-4-2.2-8.3-4-12.2-6.4-18.1-11.4-33.2-26-46.6-42.4-6.6-8.2-12.6-16.9-16.7-26.8-.8-2-.7-3.3.9-4.9 6.2-6 12.3-12.2 18.4-18.4 8.5-8.6 8.5-18.6-.1-27.3-4.9-4.9-9.7-9.7-14.6-14.7-5-5-10-10.1-15.1-15.1-8.2-8-18.5-8-26.6.1-6.3 6.2-12.3 12.5-18.7 18.6-5.9 5.6-8.9 12.5-9.5 20.5-1 13 2.2 25.3 6.7 37.3 9.2 24.8 23.2 46.9 40.3 67.1 23 27.3 50.4 49 82.5 64.6 14.5 7 29.4 12.4 45.7 13.3 11.2.6 20.9-2.2 28.7-10.9 5.3-6 11.4-11.4 17-17.1 8.4-8.5 8.4-18.7.1-27.1-9.9-10-19.9-19.9-29.9-29.9z" fill="#fff"/></svg>