<svg enable-background="new 0 0 156 156" viewBox="0 0 156 156" xmlns="http://www.w3.org/2000/svg"><path d="m127.5 96.3c-5.2-5.2-11.8-5.2-17 0-4 4-8 7.9-11.9 11.9-1.1 1.1-2 1.3-3.3.6-2.6-1.4-5.3-2.6-7.8-4.1-11.5-7.3-21.2-16.6-29.7-27-4.2-5.2-8-10.8-10.7-17.1-.5-1.3-.4-2.1.6-3.1 4-3.8 7.8-7.8 11.7-11.7 5.4-5.5 5.4-11.9-.1-17.4-3.1-3.1-6.2-6.2-9.3-9.4-3.2-3.2-6.4-6.4-9.6-9.6-5.2-5.1-11.8-5.1-17 .1-4 4-7.8 8-11.9 11.9-3.8 3.6-5.7 8-6.1 13.1-.4 8 1.6 15.9 4.5 23.5 5.9 15.8 14.8 29.9 25.7 42.8 14.7 17.4 32.2 31.3 52.6 41.2 9.2 4.5 18.8 7.9 29.2 8.5 7.1.4 13.3-1.4 18.3-7 3.4-3.8 7.3-7.3 10.8-10.9 5.4-5.4 5.4-11.9.1-17.3-6.3-6.3-12.7-12.6-19.1-19z" fill="none" stroke="#fff" stroke-miterlimit="10" stroke-width="6"/></svg>